G04 #@! TF.GenerationSoftware,KiCad,Pcbnew,6.0.0-rc1-unknown-ef6f7e9~66~ubuntu16.04.1*
G04 #@! TF.CreationDate,2019-01-29T21:41:32+01:00*
G04 #@! TF.ProjectId,roboy_hand_connector_pcb,726F626F795F68616E645F636F6E6E65,rev?*
G04 #@! TF.SameCoordinates,Original*
G04 #@! TF.FileFunction,Soldermask,Bot*
G04 #@! TF.FilePolarity,Negative*
%FSLAX46Y46*%
G04 Gerber Fmt 4.6, Leading zero omitted, Abs format (unit mm)*
G04 Created by KiCad (PCBNEW 6.0.0-rc1-unknown-ef6f7e9~66~ubuntu16.04.1) date Tue Jan 29 21:41:32 2019*
%MOMM*%
%LPD*%
G01*
G04 APERTURE LIST*
%ADD10C,0.100000*%
G04 APERTURE END LIST*
D10*
G36*
X177107396Y-104085546D02*
X177280466Y-104157234D01*
X177436230Y-104261312D01*
X177568688Y-104393770D01*
X177672766Y-104549534D01*
X177744454Y-104722604D01*
X177781000Y-104906333D01*
X177781000Y-105093667D01*
X177744454Y-105277396D01*
X177672766Y-105450466D01*
X177568688Y-105606230D01*
X177436230Y-105738688D01*
X177280466Y-105842766D01*
X177107396Y-105914454D01*
X176923667Y-105951000D01*
X176736333Y-105951000D01*
X176552604Y-105914454D01*
X176379534Y-105842766D01*
X176223770Y-105738688D01*
X176091312Y-105606230D01*
X175987234Y-105450466D01*
X175915546Y-105277396D01*
X175879000Y-105093667D01*
X175879000Y-104906333D01*
X175915546Y-104722604D01*
X175987234Y-104549534D01*
X176091312Y-104393770D01*
X176223770Y-104261312D01*
X176379534Y-104157234D01*
X176552604Y-104085546D01*
X176736333Y-104049000D01*
X176923667Y-104049000D01*
X177107396Y-104085546D01*
X177107396Y-104085546D01*
G37*
G36*
X179647396Y-104085546D02*
X179820466Y-104157234D01*
X179976230Y-104261312D01*
X180108688Y-104393770D01*
X180212766Y-104549534D01*
X180284454Y-104722604D01*
X180321000Y-104906333D01*
X180321000Y-105093667D01*
X180284454Y-105277396D01*
X180212766Y-105450466D01*
X180108688Y-105606230D01*
X179976230Y-105738688D01*
X179820466Y-105842766D01*
X179647396Y-105914454D01*
X179463667Y-105951000D01*
X179276333Y-105951000D01*
X179092604Y-105914454D01*
X178919534Y-105842766D01*
X178763770Y-105738688D01*
X178631312Y-105606230D01*
X178527234Y-105450466D01*
X178455546Y-105277396D01*
X178419000Y-105093667D01*
X178419000Y-104906333D01*
X178455546Y-104722604D01*
X178527234Y-104549534D01*
X178631312Y-104393770D01*
X178763770Y-104261312D01*
X178919534Y-104157234D01*
X179092604Y-104085546D01*
X179276333Y-104049000D01*
X179463667Y-104049000D01*
X179647396Y-104085546D01*
X179647396Y-104085546D01*
G37*
G36*
X182187396Y-104085546D02*
X182360466Y-104157234D01*
X182516230Y-104261312D01*
X182648688Y-104393770D01*
X182752766Y-104549534D01*
X182824454Y-104722604D01*
X182861000Y-104906333D01*
X182861000Y-105093667D01*
X182824454Y-105277396D01*
X182752766Y-105450466D01*
X182648688Y-105606230D01*
X182516230Y-105738688D01*
X182360466Y-105842766D01*
X182187396Y-105914454D01*
X182003667Y-105951000D01*
X181816333Y-105951000D01*
X181632604Y-105914454D01*
X181459534Y-105842766D01*
X181303770Y-105738688D01*
X181171312Y-105606230D01*
X181067234Y-105450466D01*
X180995546Y-105277396D01*
X180959000Y-105093667D01*
X180959000Y-104906333D01*
X180995546Y-104722604D01*
X181067234Y-104549534D01*
X181171312Y-104393770D01*
X181303770Y-104261312D01*
X181459534Y-104157234D01*
X181632604Y-104085546D01*
X181816333Y-104049000D01*
X182003667Y-104049000D01*
X182187396Y-104085546D01*
X182187396Y-104085546D01*
G37*
G36*
X174567396Y-104085546D02*
X174740466Y-104157234D01*
X174896230Y-104261312D01*
X175028688Y-104393770D01*
X175132766Y-104549534D01*
X175204454Y-104722604D01*
X175241000Y-104906333D01*
X175241000Y-105093667D01*
X175204454Y-105277396D01*
X175132766Y-105450466D01*
X175028688Y-105606230D01*
X174896230Y-105738688D01*
X174740466Y-105842766D01*
X174567396Y-105914454D01*
X174383667Y-105951000D01*
X174196333Y-105951000D01*
X174012604Y-105914454D01*
X173839534Y-105842766D01*
X173683770Y-105738688D01*
X173551312Y-105606230D01*
X173447234Y-105450466D01*
X173375546Y-105277396D01*
X173339000Y-105093667D01*
X173339000Y-104906333D01*
X173375546Y-104722604D01*
X173447234Y-104549534D01*
X173551312Y-104393770D01*
X173683770Y-104261312D01*
X173839534Y-104157234D01*
X174012604Y-104085546D01*
X174196333Y-104049000D01*
X174383667Y-104049000D01*
X174567396Y-104085546D01*
X174567396Y-104085546D01*
G37*
G36*
X170583655Y-102429733D02*
X170583657Y-102429734D01*
X170583658Y-102429734D01*
X170637509Y-102452040D01*
X170729440Y-102490119D01*
X170860643Y-102577786D01*
X170972214Y-102689357D01*
X171059881Y-102820560D01*
X171120267Y-102966345D01*
X171151050Y-103121102D01*
X171151050Y-103278898D01*
X171120267Y-103433655D01*
X171059881Y-103579440D01*
X170972214Y-103710643D01*
X170857907Y-103824950D01*
X170844915Y-103835612D01*
X170829370Y-103854554D01*
X170817819Y-103876165D01*
X170810706Y-103899614D01*
X170808304Y-103924001D01*
X170810706Y-103948387D01*
X170817819Y-103971836D01*
X170829371Y-103993447D01*
X170844916Y-104012389D01*
X170863858Y-104027934D01*
X170885469Y-104039485D01*
X170908918Y-104046598D01*
X170933304Y-104049000D01*
X172701000Y-104049000D01*
X172701000Y-105951000D01*
X170799000Y-105951000D01*
X170799000Y-104068145D01*
X170796598Y-104043759D01*
X170789485Y-104020310D01*
X170777934Y-103998699D01*
X170762388Y-103979757D01*
X170743446Y-103964211D01*
X170721835Y-103952660D01*
X170698386Y-103945547D01*
X170674000Y-103943145D01*
X170649614Y-103945547D01*
X170626165Y-103952660D01*
X170583658Y-103970267D01*
X170428898Y-104001050D01*
X170271102Y-104001050D01*
X170116345Y-103970267D01*
X170116343Y-103970266D01*
X170116342Y-103970266D01*
X170004649Y-103924001D01*
X169970560Y-103909881D01*
X169839357Y-103822214D01*
X169727786Y-103710643D01*
X169640119Y-103579440D01*
X169579733Y-103433655D01*
X169548950Y-103278898D01*
X169548950Y-103121102D01*
X169579733Y-102966345D01*
X169640119Y-102820560D01*
X169727786Y-102689357D01*
X169839357Y-102577786D01*
X169970560Y-102490119D01*
X170062491Y-102452040D01*
X170116342Y-102429734D01*
X170116343Y-102429734D01*
X170116345Y-102429733D01*
X170271102Y-102398950D01*
X170428898Y-102398950D01*
X170583655Y-102429733D01*
X170583655Y-102429733D01*
G37*
G36*
X148187396Y-103805546D02*
X148360466Y-103877234D01*
X148516230Y-103981312D01*
X148648688Y-104113770D01*
X148752766Y-104269534D01*
X148824454Y-104442604D01*
X148861000Y-104626333D01*
X148861000Y-104813667D01*
X148824454Y-104997396D01*
X148752766Y-105170466D01*
X148648688Y-105326230D01*
X148516230Y-105458688D01*
X148360466Y-105562766D01*
X148187396Y-105634454D01*
X148003667Y-105671000D01*
X147816333Y-105671000D01*
X147632604Y-105634454D01*
X147459534Y-105562766D01*
X147303770Y-105458688D01*
X147171312Y-105326230D01*
X147067234Y-105170466D01*
X146995546Y-104997396D01*
X146959000Y-104813667D01*
X146959000Y-104626333D01*
X146995546Y-104442604D01*
X147067234Y-104269534D01*
X147171312Y-104113770D01*
X147303770Y-103981312D01*
X147459534Y-103877234D01*
X147632604Y-103805546D01*
X147816333Y-103769000D01*
X148003667Y-103769000D01*
X148187396Y-103805546D01*
X148187396Y-103805546D01*
G37*
G36*
X145647396Y-103805546D02*
X145820466Y-103877234D01*
X145976230Y-103981312D01*
X146108688Y-104113770D01*
X146212766Y-104269534D01*
X146284454Y-104442604D01*
X146321000Y-104626333D01*
X146321000Y-104813667D01*
X146284454Y-104997396D01*
X146212766Y-105170466D01*
X146108688Y-105326230D01*
X145976230Y-105458688D01*
X145820466Y-105562766D01*
X145647396Y-105634454D01*
X145463667Y-105671000D01*
X145276333Y-105671000D01*
X145092604Y-105634454D01*
X144919534Y-105562766D01*
X144763770Y-105458688D01*
X144631312Y-105326230D01*
X144527234Y-105170466D01*
X144455546Y-104997396D01*
X144419000Y-104813667D01*
X144419000Y-104626333D01*
X144455546Y-104442604D01*
X144527234Y-104269534D01*
X144631312Y-104113770D01*
X144763770Y-103981312D01*
X144919534Y-103877234D01*
X145092604Y-103805546D01*
X145276333Y-103769000D01*
X145463667Y-103769000D01*
X145647396Y-103805546D01*
X145647396Y-103805546D01*
G37*
G36*
X158347396Y-103805546D02*
X158520466Y-103877234D01*
X158676230Y-103981312D01*
X158808688Y-104113770D01*
X158912766Y-104269534D01*
X158984454Y-104442604D01*
X159021000Y-104626333D01*
X159021000Y-104813667D01*
X158984454Y-104997396D01*
X158912766Y-105170466D01*
X158808688Y-105326230D01*
X158676230Y-105458688D01*
X158520466Y-105562766D01*
X158347396Y-105634454D01*
X158163667Y-105671000D01*
X157976333Y-105671000D01*
X157792604Y-105634454D01*
X157619534Y-105562766D01*
X157463770Y-105458688D01*
X157331312Y-105326230D01*
X157227234Y-105170466D01*
X157155546Y-104997396D01*
X157119000Y-104813667D01*
X157119000Y-104626333D01*
X157155546Y-104442604D01*
X157227234Y-104269534D01*
X157331312Y-104113770D01*
X157463770Y-103981312D01*
X157619534Y-103877234D01*
X157792604Y-103805546D01*
X157976333Y-103769000D01*
X158163667Y-103769000D01*
X158347396Y-103805546D01*
X158347396Y-103805546D01*
G37*
G36*
X155807396Y-103805546D02*
X155980466Y-103877234D01*
X156136230Y-103981312D01*
X156268688Y-104113770D01*
X156372766Y-104269534D01*
X156444454Y-104442604D01*
X156481000Y-104626333D01*
X156481000Y-104813667D01*
X156444454Y-104997396D01*
X156372766Y-105170466D01*
X156268688Y-105326230D01*
X156136230Y-105458688D01*
X155980466Y-105562766D01*
X155807396Y-105634454D01*
X155623667Y-105671000D01*
X155436333Y-105671000D01*
X155252604Y-105634454D01*
X155079534Y-105562766D01*
X154923770Y-105458688D01*
X154791312Y-105326230D01*
X154687234Y-105170466D01*
X154615546Y-104997396D01*
X154579000Y-104813667D01*
X154579000Y-104626333D01*
X154615546Y-104442604D01*
X154687234Y-104269534D01*
X154791312Y-104113770D01*
X154923770Y-103981312D01*
X155079534Y-103877234D01*
X155252604Y-103805546D01*
X155436333Y-103769000D01*
X155623667Y-103769000D01*
X155807396Y-103805546D01*
X155807396Y-103805546D01*
G37*
G36*
X153267396Y-103805546D02*
X153440466Y-103877234D01*
X153596230Y-103981312D01*
X153728688Y-104113770D01*
X153832766Y-104269534D01*
X153904454Y-104442604D01*
X153941000Y-104626333D01*
X153941000Y-104813667D01*
X153904454Y-104997396D01*
X153832766Y-105170466D01*
X153728688Y-105326230D01*
X153596230Y-105458688D01*
X153440466Y-105562766D01*
X153267396Y-105634454D01*
X153083667Y-105671000D01*
X152896333Y-105671000D01*
X152712604Y-105634454D01*
X152539534Y-105562766D01*
X152383770Y-105458688D01*
X152251312Y-105326230D01*
X152147234Y-105170466D01*
X152075546Y-104997396D01*
X152039000Y-104813667D01*
X152039000Y-104626333D01*
X152075546Y-104442604D01*
X152147234Y-104269534D01*
X152251312Y-104113770D01*
X152383770Y-103981312D01*
X152539534Y-103877234D01*
X152712604Y-103805546D01*
X152896333Y-103769000D01*
X153083667Y-103769000D01*
X153267396Y-103805546D01*
X153267396Y-103805546D01*
G37*
G36*
X150727396Y-103805546D02*
X150900466Y-103877234D01*
X151056230Y-103981312D01*
X151188688Y-104113770D01*
X151292766Y-104269534D01*
X151364454Y-104442604D01*
X151401000Y-104626333D01*
X151401000Y-104813667D01*
X151364454Y-104997396D01*
X151292766Y-105170466D01*
X151188688Y-105326230D01*
X151056230Y-105458688D01*
X150900466Y-105562766D01*
X150727396Y-105634454D01*
X150543667Y-105671000D01*
X150356333Y-105671000D01*
X150172604Y-105634454D01*
X149999534Y-105562766D01*
X149843770Y-105458688D01*
X149711312Y-105326230D01*
X149607234Y-105170466D01*
X149535546Y-104997396D01*
X149499000Y-104813667D01*
X149499000Y-104626333D01*
X149535546Y-104442604D01*
X149607234Y-104269534D01*
X149711312Y-104113770D01*
X149843770Y-103981312D01*
X149999534Y-103877234D01*
X150172604Y-103805546D01*
X150356333Y-103769000D01*
X150543667Y-103769000D01*
X150727396Y-103805546D01*
X150727396Y-103805546D01*
G37*
G36*
X138027396Y-103805546D02*
X138200466Y-103877234D01*
X138356230Y-103981312D01*
X138488688Y-104113770D01*
X138592766Y-104269534D01*
X138664454Y-104442604D01*
X138701000Y-104626333D01*
X138701000Y-104813667D01*
X138664454Y-104997396D01*
X138592766Y-105170466D01*
X138488688Y-105326230D01*
X138356230Y-105458688D01*
X138200466Y-105562766D01*
X138027396Y-105634454D01*
X137843667Y-105671000D01*
X137656333Y-105671000D01*
X137472604Y-105634454D01*
X137299534Y-105562766D01*
X137143770Y-105458688D01*
X137011312Y-105326230D01*
X136907234Y-105170466D01*
X136835546Y-104997396D01*
X136799000Y-104813667D01*
X136799000Y-104626333D01*
X136835546Y-104442604D01*
X136907234Y-104269534D01*
X137011312Y-104113770D01*
X137143770Y-103981312D01*
X137299534Y-103877234D01*
X137472604Y-103805546D01*
X137656333Y-103769000D01*
X137843667Y-103769000D01*
X138027396Y-103805546D01*
X138027396Y-103805546D01*
G37*
G36*
X134043655Y-102149733D02*
X134043657Y-102149734D01*
X134043658Y-102149734D01*
X134097509Y-102172040D01*
X134189440Y-102210119D01*
X134320643Y-102297786D01*
X134432214Y-102409357D01*
X134519881Y-102540560D01*
X134580267Y-102686345D01*
X134611050Y-102841102D01*
X134611050Y-102998898D01*
X134580267Y-103153655D01*
X134519881Y-103299440D01*
X134432214Y-103430643D01*
X134317907Y-103544950D01*
X134304915Y-103555612D01*
X134289370Y-103574554D01*
X134277819Y-103596165D01*
X134270706Y-103619614D01*
X134268304Y-103644001D01*
X134270706Y-103668387D01*
X134277819Y-103691836D01*
X134289371Y-103713447D01*
X134304916Y-103732389D01*
X134323858Y-103747934D01*
X134345469Y-103759485D01*
X134368918Y-103766598D01*
X134393304Y-103769000D01*
X136161000Y-103769000D01*
X136161000Y-105671000D01*
X134259000Y-105671000D01*
X134259000Y-103788145D01*
X134256598Y-103763759D01*
X134249485Y-103740310D01*
X134237934Y-103718699D01*
X134222388Y-103699757D01*
X134203446Y-103684211D01*
X134181835Y-103672660D01*
X134158386Y-103665547D01*
X134134000Y-103663145D01*
X134109614Y-103665547D01*
X134086165Y-103672660D01*
X134043658Y-103690267D01*
X133888898Y-103721050D01*
X133731102Y-103721050D01*
X133576345Y-103690267D01*
X133576343Y-103690266D01*
X133576342Y-103690266D01*
X133464649Y-103644001D01*
X133430560Y-103629881D01*
X133299357Y-103542214D01*
X133187786Y-103430643D01*
X133100119Y-103299440D01*
X133039733Y-103153655D01*
X133008950Y-102998898D01*
X133008950Y-102841102D01*
X133039733Y-102686345D01*
X133100119Y-102540560D01*
X133187786Y-102409357D01*
X133299357Y-102297786D01*
X133430560Y-102210119D01*
X133522491Y-102172040D01*
X133576342Y-102149734D01*
X133576343Y-102149734D01*
X133576345Y-102149733D01*
X133731102Y-102118950D01*
X133888898Y-102118950D01*
X134043655Y-102149733D01*
X134043655Y-102149733D01*
G37*
G36*
X140567396Y-103805546D02*
X140740466Y-103877234D01*
X140896230Y-103981312D01*
X141028688Y-104113770D01*
X141132766Y-104269534D01*
X141204454Y-104442604D01*
X141241000Y-104626333D01*
X141241000Y-104813667D01*
X141204454Y-104997396D01*
X141132766Y-105170466D01*
X141028688Y-105326230D01*
X140896230Y-105458688D01*
X140740466Y-105562766D01*
X140567396Y-105634454D01*
X140383667Y-105671000D01*
X140196333Y-105671000D01*
X140012604Y-105634454D01*
X139839534Y-105562766D01*
X139683770Y-105458688D01*
X139551312Y-105326230D01*
X139447234Y-105170466D01*
X139375546Y-104997396D01*
X139339000Y-104813667D01*
X139339000Y-104626333D01*
X139375546Y-104442604D01*
X139447234Y-104269534D01*
X139551312Y-104113770D01*
X139683770Y-103981312D01*
X139839534Y-103877234D01*
X140012604Y-103805546D01*
X140196333Y-103769000D01*
X140383667Y-103769000D01*
X140567396Y-103805546D01*
X140567396Y-103805546D01*
G37*
G36*
X143107396Y-103805546D02*
X143280466Y-103877234D01*
X143436230Y-103981312D01*
X143568688Y-104113770D01*
X143672766Y-104269534D01*
X143744454Y-104442604D01*
X143781000Y-104626333D01*
X143781000Y-104813667D01*
X143744454Y-104997396D01*
X143672766Y-105170466D01*
X143568688Y-105326230D01*
X143436230Y-105458688D01*
X143280466Y-105562766D01*
X143107396Y-105634454D01*
X142923667Y-105671000D01*
X142736333Y-105671000D01*
X142552604Y-105634454D01*
X142379534Y-105562766D01*
X142223770Y-105458688D01*
X142091312Y-105326230D01*
X141987234Y-105170466D01*
X141915546Y-104997396D01*
X141879000Y-104813667D01*
X141879000Y-104626333D01*
X141915546Y-104442604D01*
X141987234Y-104269534D01*
X142091312Y-104113770D01*
X142223770Y-103981312D01*
X142379534Y-103877234D01*
X142552604Y-103805546D01*
X142736333Y-103769000D01*
X142923667Y-103769000D01*
X143107396Y-103805546D01*
X143107396Y-103805546D01*
G37*
G36*
X175837396Y-101545546D02*
X176010466Y-101617234D01*
X176166230Y-101721312D01*
X176298688Y-101853770D01*
X176402766Y-102009534D01*
X176474454Y-102182604D01*
X176511000Y-102366333D01*
X176511000Y-102553667D01*
X176474454Y-102737396D01*
X176402766Y-102910466D01*
X176298688Y-103066230D01*
X176166230Y-103198688D01*
X176010466Y-103302766D01*
X175837396Y-103374454D01*
X175653667Y-103411000D01*
X175466333Y-103411000D01*
X175282604Y-103374454D01*
X175109534Y-103302766D01*
X174953770Y-103198688D01*
X174821312Y-103066230D01*
X174717234Y-102910466D01*
X174645546Y-102737396D01*
X174609000Y-102553667D01*
X174609000Y-102366333D01*
X174645546Y-102182604D01*
X174717234Y-102009534D01*
X174821312Y-101853770D01*
X174953770Y-101721312D01*
X175109534Y-101617234D01*
X175282604Y-101545546D01*
X175466333Y-101509000D01*
X175653667Y-101509000D01*
X175837396Y-101545546D01*
X175837396Y-101545546D01*
G37*
G36*
X173297396Y-101545546D02*
X173470466Y-101617234D01*
X173626230Y-101721312D01*
X173758688Y-101853770D01*
X173862766Y-102009534D01*
X173934454Y-102182604D01*
X173971000Y-102366333D01*
X173971000Y-102553667D01*
X173934454Y-102737396D01*
X173862766Y-102910466D01*
X173758688Y-103066230D01*
X173626230Y-103198688D01*
X173470466Y-103302766D01*
X173297396Y-103374454D01*
X173113667Y-103411000D01*
X172926333Y-103411000D01*
X172742604Y-103374454D01*
X172569534Y-103302766D01*
X172413770Y-103198688D01*
X172281312Y-103066230D01*
X172177234Y-102910466D01*
X172105546Y-102737396D01*
X172069000Y-102553667D01*
X172069000Y-102366333D01*
X172105546Y-102182604D01*
X172177234Y-102009534D01*
X172281312Y-101853770D01*
X172413770Y-101721312D01*
X172569534Y-101617234D01*
X172742604Y-101545546D01*
X172926333Y-101509000D01*
X173113667Y-101509000D01*
X173297396Y-101545546D01*
X173297396Y-101545546D01*
G37*
G36*
X183457396Y-101545546D02*
X183630466Y-101617234D01*
X183786230Y-101721312D01*
X183918688Y-101853770D01*
X184022766Y-102009534D01*
X184094454Y-102182604D01*
X184131000Y-102366333D01*
X184131000Y-102553667D01*
X184094454Y-102737396D01*
X184022766Y-102910466D01*
X183918688Y-103066230D01*
X183786230Y-103198688D01*
X183630466Y-103302766D01*
X183457396Y-103374454D01*
X183273667Y-103411000D01*
X183086333Y-103411000D01*
X182902604Y-103374454D01*
X182729534Y-103302766D01*
X182573770Y-103198688D01*
X182441312Y-103066230D01*
X182337234Y-102910466D01*
X182265546Y-102737396D01*
X182229000Y-102553667D01*
X182229000Y-102366333D01*
X182265546Y-102182604D01*
X182337234Y-102009534D01*
X182441312Y-101853770D01*
X182573770Y-101721312D01*
X182729534Y-101617234D01*
X182902604Y-101545546D01*
X183086333Y-101509000D01*
X183273667Y-101509000D01*
X183457396Y-101545546D01*
X183457396Y-101545546D01*
G37*
G36*
X180917396Y-101545546D02*
X181090466Y-101617234D01*
X181246230Y-101721312D01*
X181378688Y-101853770D01*
X181482766Y-102009534D01*
X181554454Y-102182604D01*
X181591000Y-102366333D01*
X181591000Y-102553667D01*
X181554454Y-102737396D01*
X181482766Y-102910466D01*
X181378688Y-103066230D01*
X181246230Y-103198688D01*
X181090466Y-103302766D01*
X180917396Y-103374454D01*
X180733667Y-103411000D01*
X180546333Y-103411000D01*
X180362604Y-103374454D01*
X180189534Y-103302766D01*
X180033770Y-103198688D01*
X179901312Y-103066230D01*
X179797234Y-102910466D01*
X179725546Y-102737396D01*
X179689000Y-102553667D01*
X179689000Y-102366333D01*
X179725546Y-102182604D01*
X179797234Y-102009534D01*
X179901312Y-101853770D01*
X180033770Y-101721312D01*
X180189534Y-101617234D01*
X180362604Y-101545546D01*
X180546333Y-101509000D01*
X180733667Y-101509000D01*
X180917396Y-101545546D01*
X180917396Y-101545546D01*
G37*
G36*
X178377396Y-101545546D02*
X178550466Y-101617234D01*
X178706230Y-101721312D01*
X178838688Y-101853770D01*
X178942766Y-102009534D01*
X179014454Y-102182604D01*
X179051000Y-102366333D01*
X179051000Y-102553667D01*
X179014454Y-102737396D01*
X178942766Y-102910466D01*
X178838688Y-103066230D01*
X178706230Y-103198688D01*
X178550466Y-103302766D01*
X178377396Y-103374454D01*
X178193667Y-103411000D01*
X178006333Y-103411000D01*
X177822604Y-103374454D01*
X177649534Y-103302766D01*
X177493770Y-103198688D01*
X177361312Y-103066230D01*
X177257234Y-102910466D01*
X177185546Y-102737396D01*
X177149000Y-102553667D01*
X177149000Y-102366333D01*
X177185546Y-102182604D01*
X177257234Y-102009534D01*
X177361312Y-101853770D01*
X177493770Y-101721312D01*
X177649534Y-101617234D01*
X177822604Y-101545546D01*
X178006333Y-101509000D01*
X178193667Y-101509000D01*
X178377396Y-101545546D01*
X178377396Y-101545546D01*
G37*
G36*
X136757396Y-101265546D02*
X136930466Y-101337234D01*
X137086230Y-101441312D01*
X137218688Y-101573770D01*
X137322766Y-101729534D01*
X137394454Y-101902604D01*
X137431000Y-102086333D01*
X137431000Y-102273667D01*
X137394454Y-102457396D01*
X137322766Y-102630466D01*
X137218688Y-102786230D01*
X137086230Y-102918688D01*
X136930466Y-103022766D01*
X136757396Y-103094454D01*
X136573667Y-103131000D01*
X136386333Y-103131000D01*
X136202604Y-103094454D01*
X136029534Y-103022766D01*
X135873770Y-102918688D01*
X135741312Y-102786230D01*
X135637234Y-102630466D01*
X135565546Y-102457396D01*
X135529000Y-102273667D01*
X135529000Y-102086333D01*
X135565546Y-101902604D01*
X135637234Y-101729534D01*
X135741312Y-101573770D01*
X135873770Y-101441312D01*
X136029534Y-101337234D01*
X136202604Y-101265546D01*
X136386333Y-101229000D01*
X136573667Y-101229000D01*
X136757396Y-101265546D01*
X136757396Y-101265546D01*
G37*
G36*
X159617396Y-101265546D02*
X159790466Y-101337234D01*
X159946230Y-101441312D01*
X160078688Y-101573770D01*
X160182766Y-101729534D01*
X160254454Y-101902604D01*
X160291000Y-102086333D01*
X160291000Y-102273667D01*
X160254454Y-102457396D01*
X160182766Y-102630466D01*
X160078688Y-102786230D01*
X159946230Y-102918688D01*
X159790466Y-103022766D01*
X159617396Y-103094454D01*
X159433667Y-103131000D01*
X159246333Y-103131000D01*
X159062604Y-103094454D01*
X158889534Y-103022766D01*
X158733770Y-102918688D01*
X158601312Y-102786230D01*
X158497234Y-102630466D01*
X158425546Y-102457396D01*
X158389000Y-102273667D01*
X158389000Y-102086333D01*
X158425546Y-101902604D01*
X158497234Y-101729534D01*
X158601312Y-101573770D01*
X158733770Y-101441312D01*
X158889534Y-101337234D01*
X159062604Y-101265546D01*
X159246333Y-101229000D01*
X159433667Y-101229000D01*
X159617396Y-101265546D01*
X159617396Y-101265546D01*
G37*
G36*
X157077396Y-101265546D02*
X157250466Y-101337234D01*
X157406230Y-101441312D01*
X157538688Y-101573770D01*
X157642766Y-101729534D01*
X157714454Y-101902604D01*
X157751000Y-102086333D01*
X157751000Y-102273667D01*
X157714454Y-102457396D01*
X157642766Y-102630466D01*
X157538688Y-102786230D01*
X157406230Y-102918688D01*
X157250466Y-103022766D01*
X157077396Y-103094454D01*
X156893667Y-103131000D01*
X156706333Y-103131000D01*
X156522604Y-103094454D01*
X156349534Y-103022766D01*
X156193770Y-102918688D01*
X156061312Y-102786230D01*
X155957234Y-102630466D01*
X155885546Y-102457396D01*
X155849000Y-102273667D01*
X155849000Y-102086333D01*
X155885546Y-101902604D01*
X155957234Y-101729534D01*
X156061312Y-101573770D01*
X156193770Y-101441312D01*
X156349534Y-101337234D01*
X156522604Y-101265546D01*
X156706333Y-101229000D01*
X156893667Y-101229000D01*
X157077396Y-101265546D01*
X157077396Y-101265546D01*
G37*
G36*
X151997396Y-101265546D02*
X152170466Y-101337234D01*
X152326230Y-101441312D01*
X152458688Y-101573770D01*
X152562766Y-101729534D01*
X152634454Y-101902604D01*
X152671000Y-102086333D01*
X152671000Y-102273667D01*
X152634454Y-102457396D01*
X152562766Y-102630466D01*
X152458688Y-102786230D01*
X152326230Y-102918688D01*
X152170466Y-103022766D01*
X151997396Y-103094454D01*
X151813667Y-103131000D01*
X151626333Y-103131000D01*
X151442604Y-103094454D01*
X151269534Y-103022766D01*
X151113770Y-102918688D01*
X150981312Y-102786230D01*
X150877234Y-102630466D01*
X150805546Y-102457396D01*
X150769000Y-102273667D01*
X150769000Y-102086333D01*
X150805546Y-101902604D01*
X150877234Y-101729534D01*
X150981312Y-101573770D01*
X151113770Y-101441312D01*
X151269534Y-101337234D01*
X151442604Y-101265546D01*
X151626333Y-101229000D01*
X151813667Y-101229000D01*
X151997396Y-101265546D01*
X151997396Y-101265546D01*
G37*
G36*
X154537396Y-101265546D02*
X154710466Y-101337234D01*
X154866230Y-101441312D01*
X154998688Y-101573770D01*
X155102766Y-101729534D01*
X155174454Y-101902604D01*
X155211000Y-102086333D01*
X155211000Y-102273667D01*
X155174454Y-102457396D01*
X155102766Y-102630466D01*
X154998688Y-102786230D01*
X154866230Y-102918688D01*
X154710466Y-103022766D01*
X154537396Y-103094454D01*
X154353667Y-103131000D01*
X154166333Y-103131000D01*
X153982604Y-103094454D01*
X153809534Y-103022766D01*
X153653770Y-102918688D01*
X153521312Y-102786230D01*
X153417234Y-102630466D01*
X153345546Y-102457396D01*
X153309000Y-102273667D01*
X153309000Y-102086333D01*
X153345546Y-101902604D01*
X153417234Y-101729534D01*
X153521312Y-101573770D01*
X153653770Y-101441312D01*
X153809534Y-101337234D01*
X153982604Y-101265546D01*
X154166333Y-101229000D01*
X154353667Y-101229000D01*
X154537396Y-101265546D01*
X154537396Y-101265546D01*
G37*
G36*
X141837396Y-101265546D02*
X142010466Y-101337234D01*
X142166230Y-101441312D01*
X142298688Y-101573770D01*
X142402766Y-101729534D01*
X142474454Y-101902604D01*
X142511000Y-102086333D01*
X142511000Y-102273667D01*
X142474454Y-102457396D01*
X142402766Y-102630466D01*
X142298688Y-102786230D01*
X142166230Y-102918688D01*
X142010466Y-103022766D01*
X141837396Y-103094454D01*
X141653667Y-103131000D01*
X141466333Y-103131000D01*
X141282604Y-103094454D01*
X141109534Y-103022766D01*
X140953770Y-102918688D01*
X140821312Y-102786230D01*
X140717234Y-102630466D01*
X140645546Y-102457396D01*
X140609000Y-102273667D01*
X140609000Y-102086333D01*
X140645546Y-101902604D01*
X140717234Y-101729534D01*
X140821312Y-101573770D01*
X140953770Y-101441312D01*
X141109534Y-101337234D01*
X141282604Y-101265546D01*
X141466333Y-101229000D01*
X141653667Y-101229000D01*
X141837396Y-101265546D01*
X141837396Y-101265546D01*
G37*
G36*
X144377396Y-101265546D02*
X144550466Y-101337234D01*
X144706230Y-101441312D01*
X144838688Y-101573770D01*
X144942766Y-101729534D01*
X145014454Y-101902604D01*
X145051000Y-102086333D01*
X145051000Y-102273667D01*
X145014454Y-102457396D01*
X144942766Y-102630466D01*
X144838688Y-102786230D01*
X144706230Y-102918688D01*
X144550466Y-103022766D01*
X144377396Y-103094454D01*
X144193667Y-103131000D01*
X144006333Y-103131000D01*
X143822604Y-103094454D01*
X143649534Y-103022766D01*
X143493770Y-102918688D01*
X143361312Y-102786230D01*
X143257234Y-102630466D01*
X143185546Y-102457396D01*
X143149000Y-102273667D01*
X143149000Y-102086333D01*
X143185546Y-101902604D01*
X143257234Y-101729534D01*
X143361312Y-101573770D01*
X143493770Y-101441312D01*
X143649534Y-101337234D01*
X143822604Y-101265546D01*
X144006333Y-101229000D01*
X144193667Y-101229000D01*
X144377396Y-101265546D01*
X144377396Y-101265546D01*
G37*
G36*
X149507396Y-101265546D02*
X149680466Y-101337234D01*
X149836230Y-101441312D01*
X149968688Y-101573770D01*
X150072766Y-101729534D01*
X150144454Y-101902604D01*
X150181000Y-102086333D01*
X150181000Y-102273667D01*
X150144454Y-102457396D01*
X150072766Y-102630466D01*
X149968688Y-102786230D01*
X149836230Y-102918688D01*
X149680466Y-103022766D01*
X149507396Y-103094454D01*
X149323667Y-103131000D01*
X149136333Y-103131000D01*
X148952604Y-103094454D01*
X148779534Y-103022766D01*
X148623770Y-102918688D01*
X148491312Y-102786230D01*
X148387234Y-102630466D01*
X148315546Y-102457396D01*
X148279000Y-102273667D01*
X148279000Y-102086333D01*
X148315546Y-101902604D01*
X148387234Y-101729534D01*
X148491312Y-101573770D01*
X148623770Y-101441312D01*
X148779534Y-101337234D01*
X148952604Y-101265546D01*
X149136333Y-101229000D01*
X149323667Y-101229000D01*
X149507396Y-101265546D01*
X149507396Y-101265546D01*
G37*
G36*
X139297396Y-101265546D02*
X139470466Y-101337234D01*
X139626230Y-101441312D01*
X139758688Y-101573770D01*
X139862766Y-101729534D01*
X139934454Y-101902604D01*
X139971000Y-102086333D01*
X139971000Y-102273667D01*
X139934454Y-102457396D01*
X139862766Y-102630466D01*
X139758688Y-102786230D01*
X139626230Y-102918688D01*
X139470466Y-103022766D01*
X139297396Y-103094454D01*
X139113667Y-103131000D01*
X138926333Y-103131000D01*
X138742604Y-103094454D01*
X138569534Y-103022766D01*
X138413770Y-102918688D01*
X138281312Y-102786230D01*
X138177234Y-102630466D01*
X138105546Y-102457396D01*
X138069000Y-102273667D01*
X138069000Y-102086333D01*
X138105546Y-101902604D01*
X138177234Y-101729534D01*
X138281312Y-101573770D01*
X138413770Y-101441312D01*
X138569534Y-101337234D01*
X138742604Y-101265546D01*
X138926333Y-101229000D01*
X139113667Y-101229000D01*
X139297396Y-101265546D01*
X139297396Y-101265546D01*
G37*
G36*
X146917396Y-101265546D02*
X147090466Y-101337234D01*
X147246230Y-101441312D01*
X147378688Y-101573770D01*
X147482766Y-101729534D01*
X147554454Y-101902604D01*
X147591000Y-102086333D01*
X147591000Y-102273667D01*
X147554454Y-102457396D01*
X147482766Y-102630466D01*
X147378688Y-102786230D01*
X147246230Y-102918688D01*
X147090466Y-103022766D01*
X146917396Y-103094454D01*
X146733667Y-103131000D01*
X146546333Y-103131000D01*
X146362604Y-103094454D01*
X146189534Y-103022766D01*
X146033770Y-102918688D01*
X145901312Y-102786230D01*
X145797234Y-102630466D01*
X145725546Y-102457396D01*
X145689000Y-102273667D01*
X145689000Y-102086333D01*
X145725546Y-101902604D01*
X145797234Y-101729534D01*
X145901312Y-101573770D01*
X146033770Y-101441312D01*
X146189534Y-101337234D01*
X146362604Y-101265546D01*
X146546333Y-101229000D01*
X146733667Y-101229000D01*
X146917396Y-101265546D01*
X146917396Y-101265546D01*
G37*
G36*
X159110443Y-97145519D02*
X159176627Y-97152037D01*
X159289853Y-97186384D01*
X159346467Y-97203557D01*
X159485087Y-97277652D01*
X159502991Y-97287222D01*
X159538729Y-97316552D01*
X159640186Y-97399814D01*
X159723448Y-97501271D01*
X159752778Y-97537009D01*
X159752779Y-97537011D01*
X159836443Y-97693533D01*
X159836443Y-97693534D01*
X159887963Y-97863373D01*
X159905359Y-98040000D01*
X159887963Y-98216627D01*
X159853616Y-98329853D01*
X159836443Y-98386467D01*
X159762348Y-98525087D01*
X159752778Y-98542991D01*
X159723448Y-98578729D01*
X159640186Y-98680186D01*
X159538729Y-98763448D01*
X159502991Y-98792778D01*
X159502989Y-98792779D01*
X159346467Y-98876443D01*
X159289853Y-98893616D01*
X159176627Y-98927963D01*
X159110443Y-98934481D01*
X159044260Y-98941000D01*
X158955740Y-98941000D01*
X158889557Y-98934481D01*
X158823373Y-98927963D01*
X158710147Y-98893616D01*
X158653533Y-98876443D01*
X158497011Y-98792779D01*
X158497009Y-98792778D01*
X158461271Y-98763448D01*
X158359814Y-98680186D01*
X158276552Y-98578729D01*
X158247222Y-98542991D01*
X158237652Y-98525087D01*
X158163557Y-98386467D01*
X158146384Y-98329853D01*
X158112037Y-98216627D01*
X158094641Y-98040000D01*
X158112037Y-97863373D01*
X158163557Y-97693534D01*
X158163557Y-97693533D01*
X158247221Y-97537011D01*
X158247222Y-97537009D01*
X158276552Y-97501271D01*
X158359814Y-97399814D01*
X158461271Y-97316552D01*
X158497009Y-97287222D01*
X158514913Y-97277652D01*
X158653533Y-97203557D01*
X158710147Y-97186384D01*
X158823373Y-97152037D01*
X158889558Y-97145518D01*
X158955740Y-97139000D01*
X159044260Y-97139000D01*
X159110443Y-97145519D01*
X159110443Y-97145519D01*
G37*
G36*
X159901000Y-96401000D02*
X158099000Y-96401000D01*
X158099000Y-94599000D01*
X159901000Y-94599000D01*
X159901000Y-96401000D01*
X159901000Y-96401000D01*
G37*
G36*
X137382397Y-93675547D02*
X137555467Y-93747235D01*
X137711231Y-93851313D01*
X137843689Y-93983771D01*
X137947767Y-94139535D01*
X138019455Y-94312605D01*
X138056001Y-94496334D01*
X138056001Y-94683668D01*
X138019455Y-94867397D01*
X137947767Y-95040467D01*
X137843689Y-95196231D01*
X137711231Y-95328689D01*
X137555467Y-95432767D01*
X137382397Y-95504455D01*
X137198668Y-95541001D01*
X137011334Y-95541001D01*
X136827605Y-95504455D01*
X136654535Y-95432767D01*
X136498771Y-95328689D01*
X136366313Y-95196231D01*
X136262235Y-95040467D01*
X136190547Y-94867397D01*
X136154001Y-94683668D01*
X136154001Y-94496334D01*
X136190547Y-94312605D01*
X136262235Y-94139535D01*
X136366313Y-93983771D01*
X136498771Y-93851313D01*
X136654535Y-93747235D01*
X136827605Y-93675547D01*
X137011334Y-93639001D01*
X137198668Y-93639001D01*
X137382397Y-93675547D01*
X137382397Y-93675547D01*
G37*
G36*
X144632397Y-93675547D02*
X144805467Y-93747235D01*
X144961231Y-93851313D01*
X145093689Y-93983771D01*
X145197767Y-94139535D01*
X145269455Y-94312605D01*
X145306001Y-94496334D01*
X145306001Y-94683668D01*
X145269455Y-94867397D01*
X145197767Y-95040467D01*
X145093689Y-95196231D01*
X144961231Y-95328689D01*
X144805467Y-95432767D01*
X144632397Y-95504455D01*
X144448668Y-95541001D01*
X144261334Y-95541001D01*
X144077605Y-95504455D01*
X143904535Y-95432767D01*
X143748771Y-95328689D01*
X143616313Y-95196231D01*
X143512235Y-95040467D01*
X143440547Y-94867397D01*
X143404001Y-94683668D01*
X143404001Y-94496334D01*
X143440547Y-94312605D01*
X143512235Y-94139535D01*
X143616313Y-93983771D01*
X143748771Y-93851313D01*
X143904535Y-93747235D01*
X144077605Y-93675547D01*
X144261334Y-93639001D01*
X144448668Y-93639001D01*
X144632397Y-93675547D01*
X144632397Y-93675547D01*
G37*
G36*
X134842397Y-92405547D02*
X135015467Y-92477235D01*
X135171231Y-92581313D01*
X135303689Y-92713771D01*
X135407767Y-92869535D01*
X135479455Y-93042605D01*
X135516001Y-93226334D01*
X135516001Y-93413668D01*
X135479455Y-93597397D01*
X135407767Y-93770467D01*
X135303689Y-93926231D01*
X135171231Y-94058689D01*
X135015467Y-94162767D01*
X134842397Y-94234455D01*
X134658668Y-94271001D01*
X134471334Y-94271001D01*
X134287605Y-94234455D01*
X134114535Y-94162767D01*
X133958771Y-94058689D01*
X133826313Y-93926231D01*
X133722235Y-93770467D01*
X133650547Y-93597397D01*
X133614001Y-93413668D01*
X133614001Y-93226334D01*
X133650547Y-93042605D01*
X133722235Y-92869535D01*
X133826313Y-92713771D01*
X133958771Y-92581313D01*
X134114535Y-92477235D01*
X134287605Y-92405547D01*
X134471334Y-92369001D01*
X134658668Y-92369001D01*
X134842397Y-92405547D01*
X134842397Y-92405547D01*
G37*
G36*
X142092397Y-92405547D02*
X142265467Y-92477235D01*
X142421231Y-92581313D01*
X142553689Y-92713771D01*
X142657767Y-92869535D01*
X142729455Y-93042605D01*
X142766001Y-93226334D01*
X142766001Y-93413668D01*
X142729455Y-93597397D01*
X142657767Y-93770467D01*
X142553689Y-93926231D01*
X142421231Y-94058689D01*
X142265467Y-94162767D01*
X142092397Y-94234455D01*
X141908668Y-94271001D01*
X141721334Y-94271001D01*
X141537605Y-94234455D01*
X141364535Y-94162767D01*
X141208771Y-94058689D01*
X141076313Y-93926231D01*
X140972235Y-93770467D01*
X140900547Y-93597397D01*
X140864001Y-93413668D01*
X140864001Y-93226334D01*
X140900547Y-93042605D01*
X140972235Y-92869535D01*
X141076313Y-92713771D01*
X141208771Y-92581313D01*
X141364535Y-92477235D01*
X141537605Y-92405547D01*
X141721334Y-92369001D01*
X141908668Y-92369001D01*
X142092397Y-92405547D01*
X142092397Y-92405547D01*
G37*
G36*
X144632397Y-91135547D02*
X144805467Y-91207235D01*
X144961231Y-91311313D01*
X145093689Y-91443771D01*
X145197767Y-91599535D01*
X145269455Y-91772605D01*
X145306001Y-91956334D01*
X145306001Y-92143668D01*
X145269455Y-92327397D01*
X145197767Y-92500467D01*
X145093689Y-92656231D01*
X144961231Y-92788689D01*
X144805467Y-92892767D01*
X144632397Y-92964455D01*
X144448668Y-93001001D01*
X144261334Y-93001001D01*
X144077605Y-92964455D01*
X143904535Y-92892767D01*
X143748771Y-92788689D01*
X143616313Y-92656231D01*
X143512235Y-92500467D01*
X143440547Y-92327397D01*
X143404001Y-92143668D01*
X143404001Y-91956334D01*
X143440547Y-91772605D01*
X143512235Y-91599535D01*
X143616313Y-91443771D01*
X143748771Y-91311313D01*
X143904535Y-91207235D01*
X144077605Y-91135547D01*
X144261334Y-91099001D01*
X144448668Y-91099001D01*
X144632397Y-91135547D01*
X144632397Y-91135547D01*
G37*
G36*
X137382397Y-91135547D02*
X137555467Y-91207235D01*
X137711231Y-91311313D01*
X137843689Y-91443771D01*
X137947767Y-91599535D01*
X138019455Y-91772605D01*
X138056001Y-91956334D01*
X138056001Y-92143668D01*
X138019455Y-92327397D01*
X137947767Y-92500467D01*
X137843689Y-92656231D01*
X137711231Y-92788689D01*
X137555467Y-92892767D01*
X137382397Y-92964455D01*
X137198668Y-93001001D01*
X137011334Y-93001001D01*
X136827605Y-92964455D01*
X136654535Y-92892767D01*
X136498771Y-92788689D01*
X136366313Y-92656231D01*
X136262235Y-92500467D01*
X136190547Y-92327397D01*
X136154001Y-92143668D01*
X136154001Y-91956334D01*
X136190547Y-91772605D01*
X136262235Y-91599535D01*
X136366313Y-91443771D01*
X136498771Y-91311313D01*
X136654535Y-91207235D01*
X136827605Y-91135547D01*
X137011334Y-91099001D01*
X137198668Y-91099001D01*
X137382397Y-91135547D01*
X137382397Y-91135547D01*
G37*
G36*
X142092397Y-89865547D02*
X142265467Y-89937235D01*
X142421231Y-90041313D01*
X142553689Y-90173771D01*
X142657767Y-90329535D01*
X142729455Y-90502605D01*
X142766001Y-90686334D01*
X142766001Y-90873668D01*
X142729455Y-91057397D01*
X142657767Y-91230467D01*
X142553689Y-91386231D01*
X142421231Y-91518689D01*
X142265467Y-91622767D01*
X142092397Y-91694455D01*
X141908668Y-91731001D01*
X141721334Y-91731001D01*
X141537605Y-91694455D01*
X141364535Y-91622767D01*
X141208771Y-91518689D01*
X141076313Y-91386231D01*
X140972235Y-91230467D01*
X140900547Y-91057397D01*
X140864001Y-90873668D01*
X140864001Y-90686334D01*
X140900547Y-90502605D01*
X140972235Y-90329535D01*
X141076313Y-90173771D01*
X141208771Y-90041313D01*
X141364535Y-89937235D01*
X141537605Y-89865547D01*
X141721334Y-89829001D01*
X141908668Y-89829001D01*
X142092397Y-89865547D01*
X142092397Y-89865547D01*
G37*
G36*
X134842397Y-89865547D02*
X135015467Y-89937235D01*
X135171231Y-90041313D01*
X135303689Y-90173771D01*
X135407767Y-90329535D01*
X135479455Y-90502605D01*
X135516001Y-90686334D01*
X135516001Y-90873668D01*
X135479455Y-91057397D01*
X135407767Y-91230467D01*
X135303689Y-91386231D01*
X135171231Y-91518689D01*
X135015467Y-91622767D01*
X134842397Y-91694455D01*
X134658668Y-91731001D01*
X134471334Y-91731001D01*
X134287605Y-91694455D01*
X134114535Y-91622767D01*
X133958771Y-91518689D01*
X133826313Y-91386231D01*
X133722235Y-91230467D01*
X133650547Y-91057397D01*
X133614001Y-90873668D01*
X133614001Y-90686334D01*
X133650547Y-90502605D01*
X133722235Y-90329535D01*
X133826313Y-90173771D01*
X133958771Y-90041313D01*
X134114535Y-89937235D01*
X134287605Y-89865547D01*
X134471334Y-89829001D01*
X134658668Y-89829001D01*
X134842397Y-89865547D01*
X134842397Y-89865547D01*
G37*
G36*
X190721000Y-90356000D02*
X188838145Y-90356000D01*
X188813759Y-90358402D01*
X188790310Y-90365515D01*
X188768699Y-90377066D01*
X188749757Y-90392612D01*
X188734211Y-90411554D01*
X188722660Y-90433165D01*
X188715547Y-90456614D01*
X188713145Y-90481000D01*
X188715547Y-90505386D01*
X188722660Y-90528835D01*
X188740267Y-90571342D01*
X188771050Y-90726102D01*
X188771050Y-90883898D01*
X188740267Y-91038655D01*
X188679881Y-91184440D01*
X188592214Y-91315643D01*
X188480643Y-91427214D01*
X188349440Y-91514881D01*
X188257509Y-91552960D01*
X188203658Y-91575266D01*
X188203657Y-91575266D01*
X188203655Y-91575267D01*
X188048898Y-91606050D01*
X187891102Y-91606050D01*
X187736345Y-91575267D01*
X187736343Y-91575266D01*
X187736342Y-91575266D01*
X187682491Y-91552960D01*
X187590560Y-91514881D01*
X187459357Y-91427214D01*
X187347786Y-91315643D01*
X187260119Y-91184440D01*
X187199733Y-91038655D01*
X187168950Y-90883898D01*
X187168950Y-90726102D01*
X187199733Y-90571345D01*
X187260119Y-90425560D01*
X187347786Y-90294357D01*
X187459357Y-90182786D01*
X187590560Y-90095119D01*
X187720464Y-90041311D01*
X187736342Y-90034734D01*
X187736343Y-90034734D01*
X187736345Y-90034733D01*
X187891102Y-90003950D01*
X188048898Y-90003950D01*
X188203655Y-90034733D01*
X188203657Y-90034734D01*
X188203658Y-90034734D01*
X188219536Y-90041311D01*
X188349440Y-90095119D01*
X188480643Y-90182786D01*
X188594950Y-90297093D01*
X188605612Y-90310085D01*
X188624554Y-90325630D01*
X188646165Y-90337181D01*
X188669614Y-90344294D01*
X188694001Y-90346696D01*
X188718387Y-90344294D01*
X188741836Y-90337181D01*
X188763447Y-90325629D01*
X188782389Y-90310084D01*
X188797934Y-90291142D01*
X188809485Y-90269531D01*
X188816598Y-90246082D01*
X188819000Y-90221696D01*
X188819000Y-88454000D01*
X190721000Y-88454000D01*
X190721000Y-90356000D01*
X190721000Y-90356000D01*
G37*
G36*
X137382397Y-88595547D02*
X137555467Y-88667235D01*
X137711231Y-88771313D01*
X137843689Y-88903771D01*
X137947767Y-89059535D01*
X138019455Y-89232605D01*
X138056001Y-89416334D01*
X138056001Y-89603668D01*
X138019455Y-89787397D01*
X137947767Y-89960467D01*
X137843689Y-90116231D01*
X137711231Y-90248689D01*
X137555467Y-90352767D01*
X137382397Y-90424455D01*
X137198668Y-90461001D01*
X137011334Y-90461001D01*
X136827605Y-90424455D01*
X136654535Y-90352767D01*
X136498771Y-90248689D01*
X136366313Y-90116231D01*
X136262235Y-89960467D01*
X136190547Y-89787397D01*
X136154001Y-89603668D01*
X136154001Y-89416334D01*
X136190547Y-89232605D01*
X136262235Y-89059535D01*
X136366313Y-88903771D01*
X136498771Y-88771313D01*
X136654535Y-88667235D01*
X136827605Y-88595547D01*
X137011334Y-88559001D01*
X137198668Y-88559001D01*
X137382397Y-88595547D01*
X137382397Y-88595547D01*
G37*
G36*
X144632397Y-88595547D02*
X144805467Y-88667235D01*
X144961231Y-88771313D01*
X145093689Y-88903771D01*
X145197767Y-89059535D01*
X145269455Y-89232605D01*
X145306001Y-89416334D01*
X145306001Y-89603668D01*
X145269455Y-89787397D01*
X145197767Y-89960467D01*
X145093689Y-90116231D01*
X144961231Y-90248689D01*
X144805467Y-90352767D01*
X144632397Y-90424455D01*
X144448668Y-90461001D01*
X144261334Y-90461001D01*
X144077605Y-90424455D01*
X143904535Y-90352767D01*
X143748771Y-90248689D01*
X143616313Y-90116231D01*
X143512235Y-89960467D01*
X143440547Y-89787397D01*
X143404001Y-89603668D01*
X143404001Y-89416334D01*
X143440547Y-89232605D01*
X143512235Y-89059535D01*
X143616313Y-88903771D01*
X143748771Y-88771313D01*
X143904535Y-88667235D01*
X144077605Y-88595547D01*
X144261334Y-88559001D01*
X144448668Y-88559001D01*
X144632397Y-88595547D01*
X144632397Y-88595547D01*
G37*
G36*
X143848656Y-86069734D02*
X143848658Y-86069735D01*
X143848659Y-86069735D01*
X143902510Y-86092041D01*
X143994441Y-86130120D01*
X144125644Y-86217787D01*
X144237215Y-86329358D01*
X144324882Y-86460561D01*
X144385268Y-86606346D01*
X144416051Y-86761103D01*
X144416051Y-86918899D01*
X144385268Y-87073656D01*
X144324882Y-87219441D01*
X144237215Y-87350644D01*
X144125644Y-87462215D01*
X143994441Y-87549882D01*
X143902510Y-87587961D01*
X143848659Y-87610267D01*
X143848658Y-87610267D01*
X143848656Y-87610268D01*
X143693899Y-87641051D01*
X143536103Y-87641051D01*
X143381346Y-87610268D01*
X143381344Y-87610267D01*
X143381343Y-87610267D01*
X143327492Y-87587961D01*
X143235561Y-87549882D01*
X143104358Y-87462215D01*
X142990051Y-87347908D01*
X142979389Y-87334916D01*
X142960447Y-87319371D01*
X142938836Y-87307820D01*
X142915387Y-87300707D01*
X142891000Y-87298305D01*
X142866614Y-87300707D01*
X142843165Y-87307820D01*
X142821554Y-87319372D01*
X142802612Y-87334917D01*
X142787067Y-87353859D01*
X142775516Y-87375470D01*
X142768403Y-87398919D01*
X142766001Y-87423305D01*
X142766001Y-89191001D01*
X140864001Y-89191001D01*
X140864001Y-87289001D01*
X142746856Y-87289001D01*
X142771242Y-87286599D01*
X142794691Y-87279486D01*
X142816302Y-87267935D01*
X142835244Y-87252389D01*
X142850790Y-87233447D01*
X142862341Y-87211836D01*
X142869454Y-87188387D01*
X142871856Y-87164001D01*
X142869454Y-87139615D01*
X142862341Y-87116166D01*
X142844734Y-87073659D01*
X142813951Y-86918899D01*
X142813951Y-86761103D01*
X142844734Y-86606346D01*
X142905120Y-86460561D01*
X142992787Y-86329358D01*
X143104358Y-86217787D01*
X143235561Y-86130120D01*
X143327492Y-86092041D01*
X143381343Y-86069735D01*
X143381344Y-86069735D01*
X143381346Y-86069734D01*
X143536103Y-86038951D01*
X143693899Y-86038951D01*
X143848656Y-86069734D01*
X143848656Y-86069734D01*
G37*
G36*
X136598656Y-86069734D02*
X136598658Y-86069735D01*
X136598659Y-86069735D01*
X136652510Y-86092041D01*
X136744441Y-86130120D01*
X136875644Y-86217787D01*
X136987215Y-86329358D01*
X137074882Y-86460561D01*
X137135268Y-86606346D01*
X137166051Y-86761103D01*
X137166051Y-86918899D01*
X137135268Y-87073656D01*
X137074882Y-87219441D01*
X136987215Y-87350644D01*
X136875644Y-87462215D01*
X136744441Y-87549882D01*
X136652510Y-87587961D01*
X136598659Y-87610267D01*
X136598658Y-87610267D01*
X136598656Y-87610268D01*
X136443899Y-87641051D01*
X136286103Y-87641051D01*
X136131346Y-87610268D01*
X136131344Y-87610267D01*
X136131343Y-87610267D01*
X136077492Y-87587961D01*
X135985561Y-87549882D01*
X135854358Y-87462215D01*
X135740051Y-87347908D01*
X135729389Y-87334916D01*
X135710447Y-87319371D01*
X135688836Y-87307820D01*
X135665387Y-87300707D01*
X135641000Y-87298305D01*
X135616614Y-87300707D01*
X135593165Y-87307820D01*
X135571554Y-87319372D01*
X135552612Y-87334917D01*
X135537067Y-87353859D01*
X135525516Y-87375470D01*
X135518403Y-87398919D01*
X135516001Y-87423305D01*
X135516001Y-89191001D01*
X133614001Y-89191001D01*
X133614001Y-87289001D01*
X135496856Y-87289001D01*
X135521242Y-87286599D01*
X135544691Y-87279486D01*
X135566302Y-87267935D01*
X135585244Y-87252389D01*
X135600790Y-87233447D01*
X135612341Y-87211836D01*
X135619454Y-87188387D01*
X135621856Y-87164001D01*
X135619454Y-87139615D01*
X135612341Y-87116166D01*
X135594734Y-87073659D01*
X135563951Y-86918899D01*
X135563951Y-86761103D01*
X135594734Y-86606346D01*
X135655120Y-86460561D01*
X135742787Y-86329358D01*
X135854358Y-86217787D01*
X135985561Y-86130120D01*
X136077492Y-86092041D01*
X136131343Y-86069735D01*
X136131344Y-86069735D01*
X136131346Y-86069734D01*
X136286103Y-86038951D01*
X136443899Y-86038951D01*
X136598656Y-86069734D01*
X136598656Y-86069734D01*
G37*
G36*
X187507396Y-87220546D02*
X187680466Y-87292234D01*
X187836230Y-87396312D01*
X187968688Y-87528770D01*
X188072766Y-87684534D01*
X188144454Y-87857604D01*
X188181000Y-88041333D01*
X188181000Y-88228667D01*
X188144454Y-88412396D01*
X188072766Y-88585466D01*
X187968688Y-88741230D01*
X187836230Y-88873688D01*
X187680466Y-88977766D01*
X187507396Y-89049454D01*
X187323667Y-89086000D01*
X187136333Y-89086000D01*
X186952604Y-89049454D01*
X186779534Y-88977766D01*
X186623770Y-88873688D01*
X186491312Y-88741230D01*
X186387234Y-88585466D01*
X186315546Y-88412396D01*
X186279000Y-88228667D01*
X186279000Y-88041333D01*
X186315546Y-87857604D01*
X186387234Y-87684534D01*
X186491312Y-87528770D01*
X186623770Y-87396312D01*
X186779534Y-87292234D01*
X186952604Y-87220546D01*
X187136333Y-87184000D01*
X187323667Y-87184000D01*
X187507396Y-87220546D01*
X187507396Y-87220546D01*
G37*
G36*
X190047396Y-85950546D02*
X190220466Y-86022234D01*
X190376230Y-86126312D01*
X190508688Y-86258770D01*
X190612766Y-86414534D01*
X190684454Y-86587604D01*
X190721000Y-86771333D01*
X190721000Y-86958667D01*
X190684454Y-87142396D01*
X190612766Y-87315466D01*
X190508688Y-87471230D01*
X190376230Y-87603688D01*
X190220466Y-87707766D01*
X190047396Y-87779454D01*
X189863667Y-87816000D01*
X189676333Y-87816000D01*
X189492604Y-87779454D01*
X189319534Y-87707766D01*
X189163770Y-87603688D01*
X189031312Y-87471230D01*
X188927234Y-87315466D01*
X188855546Y-87142396D01*
X188819000Y-86958667D01*
X188819000Y-86771333D01*
X188855546Y-86587604D01*
X188927234Y-86414534D01*
X189031312Y-86258770D01*
X189163770Y-86126312D01*
X189319534Y-86022234D01*
X189492604Y-85950546D01*
X189676333Y-85914000D01*
X189863667Y-85914000D01*
X190047396Y-85950546D01*
X190047396Y-85950546D01*
G37*
G36*
X187507396Y-84680546D02*
X187680466Y-84752234D01*
X187836230Y-84856312D01*
X187968688Y-84988770D01*
X188072766Y-85144534D01*
X188144454Y-85317604D01*
X188181000Y-85501333D01*
X188181000Y-85688667D01*
X188144454Y-85872396D01*
X188072766Y-86045466D01*
X187968688Y-86201230D01*
X187836230Y-86333688D01*
X187680466Y-86437766D01*
X187507396Y-86509454D01*
X187323667Y-86546000D01*
X187136333Y-86546000D01*
X186952604Y-86509454D01*
X186779534Y-86437766D01*
X186623770Y-86333688D01*
X186491312Y-86201230D01*
X186387234Y-86045466D01*
X186315546Y-85872396D01*
X186279000Y-85688667D01*
X186279000Y-85501333D01*
X186315546Y-85317604D01*
X186387234Y-85144534D01*
X186491312Y-84988770D01*
X186623770Y-84856312D01*
X186779534Y-84752234D01*
X186952604Y-84680546D01*
X187136333Y-84644000D01*
X187323667Y-84644000D01*
X187507396Y-84680546D01*
X187507396Y-84680546D01*
G37*
G36*
X173662396Y-79605546D02*
X173835466Y-79677234D01*
X173991230Y-79781312D01*
X174123688Y-79913770D01*
X174227766Y-80069534D01*
X174299454Y-80242604D01*
X174336000Y-80426333D01*
X174336000Y-80613667D01*
X174299454Y-80797396D01*
X174227766Y-80970466D01*
X174123688Y-81126230D01*
X173991230Y-81258688D01*
X173835466Y-81362766D01*
X173662396Y-81434454D01*
X173478667Y-81471000D01*
X173291333Y-81471000D01*
X173107604Y-81434454D01*
X172934534Y-81362766D01*
X172778770Y-81258688D01*
X172646312Y-81126230D01*
X172542234Y-80970466D01*
X172470546Y-80797396D01*
X172434000Y-80613667D01*
X172434000Y-80426333D01*
X172470546Y-80242604D01*
X172542234Y-80069534D01*
X172646312Y-79913770D01*
X172778770Y-79781312D01*
X172934534Y-79677234D01*
X173107604Y-79605546D01*
X173291333Y-79569000D01*
X173478667Y-79569000D01*
X173662396Y-79605546D01*
X173662396Y-79605546D01*
G37*
G36*
X178678655Y-77949733D02*
X178678657Y-77949734D01*
X178678658Y-77949734D01*
X178727871Y-77970119D01*
X178824440Y-78010119D01*
X178955643Y-78097786D01*
X179067214Y-78209357D01*
X179154881Y-78340560D01*
X179154881Y-78340561D01*
X179198699Y-78446345D01*
X179215267Y-78486345D01*
X179246050Y-78641102D01*
X179246050Y-78798898D01*
X179215267Y-78953655D01*
X179154881Y-79099440D01*
X179067214Y-79230643D01*
X178952907Y-79344950D01*
X178939915Y-79355612D01*
X178924370Y-79374554D01*
X178912819Y-79396165D01*
X178905706Y-79419614D01*
X178903304Y-79444001D01*
X178905706Y-79468387D01*
X178912819Y-79491836D01*
X178924371Y-79513447D01*
X178939916Y-79532389D01*
X178958858Y-79547934D01*
X178980469Y-79559485D01*
X179003918Y-79566598D01*
X179028304Y-79569000D01*
X180796000Y-79569000D01*
X180796000Y-81471000D01*
X178894000Y-81471000D01*
X178894000Y-79588145D01*
X178891598Y-79563759D01*
X178884485Y-79540310D01*
X178872934Y-79518699D01*
X178857388Y-79499757D01*
X178838446Y-79484211D01*
X178816835Y-79472660D01*
X178793386Y-79465547D01*
X178769000Y-79463145D01*
X178744614Y-79465547D01*
X178721165Y-79472660D01*
X178678658Y-79490267D01*
X178523898Y-79521050D01*
X178366102Y-79521050D01*
X178211345Y-79490267D01*
X178211343Y-79490266D01*
X178211342Y-79490266D01*
X178145867Y-79463145D01*
X178065560Y-79429881D01*
X177934357Y-79342214D01*
X177822786Y-79230643D01*
X177735119Y-79099440D01*
X177674733Y-78953655D01*
X177643950Y-78798898D01*
X177643950Y-78641102D01*
X177674733Y-78486345D01*
X177691302Y-78446345D01*
X177735119Y-78340561D01*
X177735119Y-78340560D01*
X177822786Y-78209357D01*
X177934357Y-78097786D01*
X178065560Y-78010119D01*
X178162129Y-77970119D01*
X178211342Y-77949734D01*
X178211343Y-77949734D01*
X178211345Y-77949733D01*
X178366102Y-77918950D01*
X178523898Y-77918950D01*
X178678655Y-77949733D01*
X178678655Y-77949733D01*
G37*
G36*
X182662396Y-79605546D02*
X182835466Y-79677234D01*
X182991230Y-79781312D01*
X183123688Y-79913770D01*
X183227766Y-80069534D01*
X183299454Y-80242604D01*
X183336000Y-80426333D01*
X183336000Y-80613667D01*
X183299454Y-80797396D01*
X183227766Y-80970466D01*
X183123688Y-81126230D01*
X182991230Y-81258688D01*
X182835466Y-81362766D01*
X182662396Y-81434454D01*
X182478667Y-81471000D01*
X182291333Y-81471000D01*
X182107604Y-81434454D01*
X181934534Y-81362766D01*
X181778770Y-81258688D01*
X181646312Y-81126230D01*
X181542234Y-80970466D01*
X181470546Y-80797396D01*
X181434000Y-80613667D01*
X181434000Y-80426333D01*
X181470546Y-80242604D01*
X181542234Y-80069534D01*
X181646312Y-79913770D01*
X181778770Y-79781312D01*
X181934534Y-79677234D01*
X182107604Y-79605546D01*
X182291333Y-79569000D01*
X182478667Y-79569000D01*
X182662396Y-79605546D01*
X182662396Y-79605546D01*
G37*
G36*
X169678655Y-77949733D02*
X169678657Y-77949734D01*
X169678658Y-77949734D01*
X169727871Y-77970119D01*
X169824440Y-78010119D01*
X169955643Y-78097786D01*
X170067214Y-78209357D01*
X170154881Y-78340560D01*
X170154881Y-78340561D01*
X170198699Y-78446345D01*
X170215267Y-78486345D01*
X170246050Y-78641102D01*
X170246050Y-78798898D01*
X170215267Y-78953655D01*
X170154881Y-79099440D01*
X170067214Y-79230643D01*
X169952907Y-79344950D01*
X169939915Y-79355612D01*
X169924370Y-79374554D01*
X169912819Y-79396165D01*
X169905706Y-79419614D01*
X169903304Y-79444001D01*
X169905706Y-79468387D01*
X169912819Y-79491836D01*
X169924371Y-79513447D01*
X169939916Y-79532389D01*
X169958858Y-79547934D01*
X169980469Y-79559485D01*
X170003918Y-79566598D01*
X170028304Y-79569000D01*
X171796000Y-79569000D01*
X171796000Y-81471000D01*
X169894000Y-81471000D01*
X169894000Y-79588145D01*
X169891598Y-79563759D01*
X169884485Y-79540310D01*
X169872934Y-79518699D01*
X169857388Y-79499757D01*
X169838446Y-79484211D01*
X169816835Y-79472660D01*
X169793386Y-79465547D01*
X169769000Y-79463145D01*
X169744614Y-79465547D01*
X169721165Y-79472660D01*
X169678658Y-79490267D01*
X169523898Y-79521050D01*
X169366102Y-79521050D01*
X169211345Y-79490267D01*
X169211343Y-79490266D01*
X169211342Y-79490266D01*
X169145867Y-79463145D01*
X169065560Y-79429881D01*
X168934357Y-79342214D01*
X168822786Y-79230643D01*
X168735119Y-79099440D01*
X168674733Y-78953655D01*
X168643950Y-78798898D01*
X168643950Y-78641102D01*
X168674733Y-78486345D01*
X168691302Y-78446345D01*
X168735119Y-78340561D01*
X168735119Y-78340560D01*
X168822786Y-78209357D01*
X168934357Y-78097786D01*
X169065560Y-78010119D01*
X169162129Y-77970119D01*
X169211342Y-77949734D01*
X169211343Y-77949734D01*
X169211345Y-77949733D01*
X169366102Y-77918950D01*
X169523898Y-77918950D01*
X169678655Y-77949733D01*
X169678655Y-77949733D01*
G37*
G36*
X160703655Y-77919733D02*
X160703657Y-77919734D01*
X160703658Y-77919734D01*
X160757509Y-77942040D01*
X160849440Y-77980119D01*
X160980643Y-78067786D01*
X161092214Y-78179357D01*
X161179881Y-78310560D01*
X161240267Y-78456345D01*
X161271050Y-78611102D01*
X161271050Y-78768898D01*
X161240267Y-78923655D01*
X161179881Y-79069440D01*
X161092214Y-79200643D01*
X160977907Y-79314950D01*
X160964915Y-79325612D01*
X160949370Y-79344554D01*
X160937819Y-79366165D01*
X160930706Y-79389614D01*
X160928304Y-79414001D01*
X160930706Y-79438387D01*
X160937819Y-79461836D01*
X160949371Y-79483447D01*
X160964916Y-79502389D01*
X160983858Y-79517934D01*
X161005469Y-79529485D01*
X161028918Y-79536598D01*
X161053304Y-79539000D01*
X162821000Y-79539000D01*
X162821000Y-81441000D01*
X160919000Y-81441000D01*
X160919000Y-79558145D01*
X160916598Y-79533759D01*
X160909485Y-79510310D01*
X160897934Y-79488699D01*
X160882388Y-79469757D01*
X160863446Y-79454211D01*
X160841835Y-79442660D01*
X160818386Y-79435547D01*
X160794000Y-79433145D01*
X160769614Y-79435547D01*
X160746165Y-79442660D01*
X160703658Y-79460267D01*
X160548898Y-79491050D01*
X160391102Y-79491050D01*
X160236345Y-79460267D01*
X160236343Y-79460266D01*
X160236342Y-79460266D01*
X160159380Y-79428387D01*
X160090560Y-79399881D01*
X159959357Y-79312214D01*
X159847786Y-79200643D01*
X159760119Y-79069440D01*
X159699733Y-78923655D01*
X159668950Y-78768898D01*
X159668950Y-78611102D01*
X159699733Y-78456345D01*
X159760119Y-78310560D01*
X159847786Y-78179357D01*
X159959357Y-78067786D01*
X160090560Y-77980119D01*
X160182491Y-77942040D01*
X160236342Y-77919734D01*
X160236343Y-77919734D01*
X160236345Y-77919733D01*
X160391102Y-77888950D01*
X160548898Y-77888950D01*
X160703655Y-77919733D01*
X160703655Y-77919733D01*
G37*
G36*
X164687396Y-79575546D02*
X164860466Y-79647234D01*
X165016230Y-79751312D01*
X165148688Y-79883770D01*
X165252766Y-80039534D01*
X165324454Y-80212604D01*
X165361000Y-80396333D01*
X165361000Y-80583667D01*
X165324454Y-80767396D01*
X165252766Y-80940466D01*
X165148688Y-81096230D01*
X165016230Y-81228688D01*
X164860466Y-81332766D01*
X164687396Y-81404454D01*
X164503667Y-81441000D01*
X164316333Y-81441000D01*
X164132604Y-81404454D01*
X163959534Y-81332766D01*
X163803770Y-81228688D01*
X163671312Y-81096230D01*
X163567234Y-80940466D01*
X163495546Y-80767396D01*
X163459000Y-80583667D01*
X163459000Y-80396333D01*
X163495546Y-80212604D01*
X163567234Y-80039534D01*
X163671312Y-79883770D01*
X163803770Y-79751312D01*
X163959534Y-79647234D01*
X164132604Y-79575546D01*
X164316333Y-79539000D01*
X164503667Y-79539000D01*
X164687396Y-79575546D01*
X164687396Y-79575546D01*
G37*
G36*
X151788655Y-77909733D02*
X151788657Y-77909734D01*
X151788658Y-77909734D01*
X151812800Y-77919734D01*
X151934440Y-77970119D01*
X152065643Y-78057786D01*
X152177214Y-78169357D01*
X152264881Y-78300560D01*
X152325267Y-78446345D01*
X152356050Y-78601102D01*
X152356050Y-78758898D01*
X152329087Y-78894453D01*
X152325266Y-78913658D01*
X152308697Y-78953658D01*
X152264881Y-79059440D01*
X152177214Y-79190643D01*
X152062907Y-79304950D01*
X152049915Y-79315612D01*
X152034370Y-79334554D01*
X152022819Y-79356165D01*
X152015706Y-79379614D01*
X152013304Y-79404001D01*
X152015706Y-79428387D01*
X152022819Y-79451836D01*
X152034371Y-79473447D01*
X152049916Y-79492389D01*
X152068858Y-79507934D01*
X152090469Y-79519485D01*
X152113918Y-79526598D01*
X152138304Y-79529000D01*
X153906000Y-79529000D01*
X153906000Y-81431000D01*
X152004000Y-81431000D01*
X152004000Y-79548145D01*
X152001598Y-79523759D01*
X151994485Y-79500310D01*
X151982934Y-79478699D01*
X151967388Y-79459757D01*
X151948446Y-79444211D01*
X151926835Y-79432660D01*
X151903386Y-79425547D01*
X151879000Y-79423145D01*
X151854614Y-79425547D01*
X151831165Y-79432660D01*
X151788658Y-79450267D01*
X151633898Y-79481050D01*
X151476102Y-79481050D01*
X151321345Y-79450267D01*
X151321343Y-79450266D01*
X151321342Y-79450266D01*
X151209649Y-79404001D01*
X151175560Y-79389881D01*
X151044357Y-79302214D01*
X150932786Y-79190643D01*
X150845119Y-79059440D01*
X150801303Y-78953658D01*
X150784734Y-78913658D01*
X150780914Y-78894453D01*
X150753950Y-78758898D01*
X150753950Y-78601102D01*
X150784733Y-78446345D01*
X150845119Y-78300560D01*
X150932786Y-78169357D01*
X151044357Y-78057786D01*
X151175560Y-77970119D01*
X151297200Y-77919734D01*
X151321342Y-77909734D01*
X151321343Y-77909734D01*
X151321345Y-77909733D01*
X151476102Y-77878950D01*
X151633898Y-77878950D01*
X151788655Y-77909733D01*
X151788655Y-77909733D01*
G37*
G36*
X146882396Y-79565546D02*
X147055466Y-79637234D01*
X147211230Y-79741312D01*
X147343688Y-79873770D01*
X147447766Y-80029534D01*
X147519454Y-80202604D01*
X147556000Y-80386333D01*
X147556000Y-80573667D01*
X147519454Y-80757396D01*
X147447766Y-80930466D01*
X147343688Y-81086230D01*
X147211230Y-81218688D01*
X147055466Y-81322766D01*
X146882396Y-81394454D01*
X146698667Y-81431000D01*
X146511333Y-81431000D01*
X146327604Y-81394454D01*
X146154534Y-81322766D01*
X145998770Y-81218688D01*
X145866312Y-81086230D01*
X145762234Y-80930466D01*
X145690546Y-80757396D01*
X145654000Y-80573667D01*
X145654000Y-80386333D01*
X145690546Y-80202604D01*
X145762234Y-80029534D01*
X145866312Y-79873770D01*
X145998770Y-79741312D01*
X146154534Y-79637234D01*
X146327604Y-79565546D01*
X146511333Y-79529000D01*
X146698667Y-79529000D01*
X146882396Y-79565546D01*
X146882396Y-79565546D01*
G37*
G36*
X142898655Y-77909733D02*
X142898657Y-77909734D01*
X142898658Y-77909734D01*
X142922800Y-77919734D01*
X143044440Y-77970119D01*
X143175643Y-78057786D01*
X143287214Y-78169357D01*
X143374881Y-78300560D01*
X143435267Y-78446345D01*
X143466050Y-78601102D01*
X143466050Y-78758898D01*
X143439087Y-78894453D01*
X143435266Y-78913658D01*
X143418697Y-78953658D01*
X143374881Y-79059440D01*
X143287214Y-79190643D01*
X143172907Y-79304950D01*
X143159915Y-79315612D01*
X143144370Y-79334554D01*
X143132819Y-79356165D01*
X143125706Y-79379614D01*
X143123304Y-79404001D01*
X143125706Y-79428387D01*
X143132819Y-79451836D01*
X143144371Y-79473447D01*
X143159916Y-79492389D01*
X143178858Y-79507934D01*
X143200469Y-79519485D01*
X143223918Y-79526598D01*
X143248304Y-79529000D01*
X145016000Y-79529000D01*
X145016000Y-81431000D01*
X143114000Y-81431000D01*
X143114000Y-79548145D01*
X143111598Y-79523759D01*
X143104485Y-79500310D01*
X143092934Y-79478699D01*
X143077388Y-79459757D01*
X143058446Y-79444211D01*
X143036835Y-79432660D01*
X143013386Y-79425547D01*
X142989000Y-79423145D01*
X142964614Y-79425547D01*
X142941165Y-79432660D01*
X142898658Y-79450267D01*
X142743898Y-79481050D01*
X142586102Y-79481050D01*
X142431345Y-79450267D01*
X142431343Y-79450266D01*
X142431342Y-79450266D01*
X142319649Y-79404001D01*
X142285560Y-79389881D01*
X142154357Y-79302214D01*
X142042786Y-79190643D01*
X141955119Y-79059440D01*
X141911303Y-78953658D01*
X141894734Y-78913658D01*
X141890914Y-78894453D01*
X141863950Y-78758898D01*
X141863950Y-78601102D01*
X141894733Y-78446345D01*
X141955119Y-78300560D01*
X142042786Y-78169357D01*
X142154357Y-78057786D01*
X142285560Y-77970119D01*
X142407200Y-77919734D01*
X142431342Y-77909734D01*
X142431343Y-77909734D01*
X142431345Y-77909733D01*
X142586102Y-77878950D01*
X142743898Y-77878950D01*
X142898655Y-77909733D01*
X142898655Y-77909733D01*
G37*
G36*
X134008655Y-77909733D02*
X134008657Y-77909734D01*
X134008658Y-77909734D01*
X134032800Y-77919734D01*
X134154440Y-77970119D01*
X134285643Y-78057786D01*
X134397214Y-78169357D01*
X134484881Y-78300560D01*
X134545267Y-78446345D01*
X134576050Y-78601102D01*
X134576050Y-78758898D01*
X134549087Y-78894453D01*
X134545266Y-78913658D01*
X134528697Y-78953658D01*
X134484881Y-79059440D01*
X134397214Y-79190643D01*
X134282907Y-79304950D01*
X134269915Y-79315612D01*
X134254370Y-79334554D01*
X134242819Y-79356165D01*
X134235706Y-79379614D01*
X134233304Y-79404001D01*
X134235706Y-79428387D01*
X134242819Y-79451836D01*
X134254371Y-79473447D01*
X134269916Y-79492389D01*
X134288858Y-79507934D01*
X134310469Y-79519485D01*
X134333918Y-79526598D01*
X134358304Y-79529000D01*
X136126000Y-79529000D01*
X136126000Y-81431000D01*
X134224000Y-81431000D01*
X134224000Y-79548145D01*
X134221598Y-79523759D01*
X134214485Y-79500310D01*
X134202934Y-79478699D01*
X134187388Y-79459757D01*
X134168446Y-79444211D01*
X134146835Y-79432660D01*
X134123386Y-79425547D01*
X134099000Y-79423145D01*
X134074614Y-79425547D01*
X134051165Y-79432660D01*
X134008658Y-79450267D01*
X133853898Y-79481050D01*
X133696102Y-79481050D01*
X133541345Y-79450267D01*
X133541343Y-79450266D01*
X133541342Y-79450266D01*
X133429649Y-79404001D01*
X133395560Y-79389881D01*
X133264357Y-79302214D01*
X133152786Y-79190643D01*
X133065119Y-79059440D01*
X133021303Y-78953658D01*
X133004734Y-78913658D01*
X133000914Y-78894453D01*
X132973950Y-78758898D01*
X132973950Y-78601102D01*
X133004733Y-78446345D01*
X133065119Y-78300560D01*
X133152786Y-78169357D01*
X133264357Y-78057786D01*
X133395560Y-77970119D01*
X133517200Y-77919734D01*
X133541342Y-77909734D01*
X133541343Y-77909734D01*
X133541345Y-77909733D01*
X133696102Y-77878950D01*
X133853898Y-77878950D01*
X134008655Y-77909733D01*
X134008655Y-77909733D01*
G37*
G36*
X137992396Y-79565546D02*
X138165466Y-79637234D01*
X138321230Y-79741312D01*
X138453688Y-79873770D01*
X138557766Y-80029534D01*
X138629454Y-80202604D01*
X138666000Y-80386333D01*
X138666000Y-80573667D01*
X138629454Y-80757396D01*
X138557766Y-80930466D01*
X138453688Y-81086230D01*
X138321230Y-81218688D01*
X138165466Y-81322766D01*
X137992396Y-81394454D01*
X137808667Y-81431000D01*
X137621333Y-81431000D01*
X137437604Y-81394454D01*
X137264534Y-81322766D01*
X137108770Y-81218688D01*
X136976312Y-81086230D01*
X136872234Y-80930466D01*
X136800546Y-80757396D01*
X136764000Y-80573667D01*
X136764000Y-80386333D01*
X136800546Y-80202604D01*
X136872234Y-80029534D01*
X136976312Y-79873770D01*
X137108770Y-79741312D01*
X137264534Y-79637234D01*
X137437604Y-79565546D01*
X137621333Y-79529000D01*
X137808667Y-79529000D01*
X137992396Y-79565546D01*
X137992396Y-79565546D01*
G37*
G36*
X155772396Y-79565546D02*
X155945466Y-79637234D01*
X156101230Y-79741312D01*
X156233688Y-79873770D01*
X156337766Y-80029534D01*
X156409454Y-80202604D01*
X156446000Y-80386333D01*
X156446000Y-80573667D01*
X156409454Y-80757396D01*
X156337766Y-80930466D01*
X156233688Y-81086230D01*
X156101230Y-81218688D01*
X155945466Y-81322766D01*
X155772396Y-81394454D01*
X155588667Y-81431000D01*
X155401333Y-81431000D01*
X155217604Y-81394454D01*
X155044534Y-81322766D01*
X154888770Y-81218688D01*
X154756312Y-81086230D01*
X154652234Y-80930466D01*
X154580546Y-80757396D01*
X154544000Y-80573667D01*
X154544000Y-80386333D01*
X154580546Y-80202604D01*
X154652234Y-80029534D01*
X154756312Y-79873770D01*
X154888770Y-79741312D01*
X155044534Y-79637234D01*
X155217604Y-79565546D01*
X155401333Y-79529000D01*
X155588667Y-79529000D01*
X155772396Y-79565546D01*
X155772396Y-79565546D01*
G37*
G36*
X174932396Y-77065546D02*
X175105466Y-77137234D01*
X175261230Y-77241312D01*
X175393688Y-77373770D01*
X175497766Y-77529534D01*
X175569454Y-77702604D01*
X175606000Y-77886333D01*
X175606000Y-78073667D01*
X175569454Y-78257396D01*
X175497766Y-78430466D01*
X175393688Y-78586230D01*
X175261230Y-78718688D01*
X175105466Y-78822766D01*
X174932396Y-78894454D01*
X174748667Y-78931000D01*
X174561333Y-78931000D01*
X174377604Y-78894454D01*
X174204534Y-78822766D01*
X174048770Y-78718688D01*
X173916312Y-78586230D01*
X173812234Y-78430466D01*
X173740546Y-78257396D01*
X173704000Y-78073667D01*
X173704000Y-77886333D01*
X173740546Y-77702604D01*
X173812234Y-77529534D01*
X173916312Y-77373770D01*
X174048770Y-77241312D01*
X174204534Y-77137234D01*
X174377604Y-77065546D01*
X174561333Y-77029000D01*
X174748667Y-77029000D01*
X174932396Y-77065546D01*
X174932396Y-77065546D01*
G37*
G36*
X172392396Y-77065546D02*
X172565466Y-77137234D01*
X172721230Y-77241312D01*
X172853688Y-77373770D01*
X172957766Y-77529534D01*
X173029454Y-77702604D01*
X173066000Y-77886333D01*
X173066000Y-78073667D01*
X173029454Y-78257396D01*
X172957766Y-78430466D01*
X172853688Y-78586230D01*
X172721230Y-78718688D01*
X172565466Y-78822766D01*
X172392396Y-78894454D01*
X172208667Y-78931000D01*
X172021333Y-78931000D01*
X171837604Y-78894454D01*
X171664534Y-78822766D01*
X171508770Y-78718688D01*
X171376312Y-78586230D01*
X171272234Y-78430466D01*
X171200546Y-78257396D01*
X171164000Y-78073667D01*
X171164000Y-77886333D01*
X171200546Y-77702604D01*
X171272234Y-77529534D01*
X171376312Y-77373770D01*
X171508770Y-77241312D01*
X171664534Y-77137234D01*
X171837604Y-77065546D01*
X172021333Y-77029000D01*
X172208667Y-77029000D01*
X172392396Y-77065546D01*
X172392396Y-77065546D01*
G37*
G36*
X181392396Y-77065546D02*
X181565466Y-77137234D01*
X181721230Y-77241312D01*
X181853688Y-77373770D01*
X181957766Y-77529534D01*
X182029454Y-77702604D01*
X182066000Y-77886333D01*
X182066000Y-78073667D01*
X182029454Y-78257396D01*
X181957766Y-78430466D01*
X181853688Y-78586230D01*
X181721230Y-78718688D01*
X181565466Y-78822766D01*
X181392396Y-78894454D01*
X181208667Y-78931000D01*
X181021333Y-78931000D01*
X180837604Y-78894454D01*
X180664534Y-78822766D01*
X180508770Y-78718688D01*
X180376312Y-78586230D01*
X180272234Y-78430466D01*
X180200546Y-78257396D01*
X180164000Y-78073667D01*
X180164000Y-77886333D01*
X180200546Y-77702604D01*
X180272234Y-77529534D01*
X180376312Y-77373770D01*
X180508770Y-77241312D01*
X180664534Y-77137234D01*
X180837604Y-77065546D01*
X181021333Y-77029000D01*
X181208667Y-77029000D01*
X181392396Y-77065546D01*
X181392396Y-77065546D01*
G37*
G36*
X183932396Y-77065546D02*
X184105466Y-77137234D01*
X184261230Y-77241312D01*
X184393688Y-77373770D01*
X184497766Y-77529534D01*
X184569454Y-77702604D01*
X184606000Y-77886333D01*
X184606000Y-78073667D01*
X184569454Y-78257396D01*
X184497766Y-78430466D01*
X184393688Y-78586230D01*
X184261230Y-78718688D01*
X184105466Y-78822766D01*
X183932396Y-78894454D01*
X183748667Y-78931000D01*
X183561333Y-78931000D01*
X183377604Y-78894454D01*
X183204534Y-78822766D01*
X183048770Y-78718688D01*
X182916312Y-78586230D01*
X182812234Y-78430466D01*
X182740546Y-78257396D01*
X182704000Y-78073667D01*
X182704000Y-77886333D01*
X182740546Y-77702604D01*
X182812234Y-77529534D01*
X182916312Y-77373770D01*
X183048770Y-77241312D01*
X183204534Y-77137234D01*
X183377604Y-77065546D01*
X183561333Y-77029000D01*
X183748667Y-77029000D01*
X183932396Y-77065546D01*
X183932396Y-77065546D01*
G37*
G36*
X163417396Y-77035546D02*
X163590466Y-77107234D01*
X163746230Y-77211312D01*
X163878688Y-77343770D01*
X163982766Y-77499534D01*
X164054454Y-77672604D01*
X164091000Y-77856333D01*
X164091000Y-78043667D01*
X164054454Y-78227396D01*
X163982766Y-78400466D01*
X163878688Y-78556230D01*
X163746230Y-78688688D01*
X163590466Y-78792766D01*
X163417396Y-78864454D01*
X163233667Y-78901000D01*
X163046333Y-78901000D01*
X162862604Y-78864454D01*
X162689534Y-78792766D01*
X162533770Y-78688688D01*
X162401312Y-78556230D01*
X162297234Y-78400466D01*
X162225546Y-78227396D01*
X162189000Y-78043667D01*
X162189000Y-77856333D01*
X162225546Y-77672604D01*
X162297234Y-77499534D01*
X162401312Y-77343770D01*
X162533770Y-77211312D01*
X162689534Y-77107234D01*
X162862604Y-77035546D01*
X163046333Y-76999000D01*
X163233667Y-76999000D01*
X163417396Y-77035546D01*
X163417396Y-77035546D01*
G37*
G36*
X165957396Y-77035546D02*
X166130466Y-77107234D01*
X166286230Y-77211312D01*
X166418688Y-77343770D01*
X166522766Y-77499534D01*
X166594454Y-77672604D01*
X166631000Y-77856333D01*
X166631000Y-78043667D01*
X166594454Y-78227396D01*
X166522766Y-78400466D01*
X166418688Y-78556230D01*
X166286230Y-78688688D01*
X166130466Y-78792766D01*
X165957396Y-78864454D01*
X165773667Y-78901000D01*
X165586333Y-78901000D01*
X165402604Y-78864454D01*
X165229534Y-78792766D01*
X165073770Y-78688688D01*
X164941312Y-78556230D01*
X164837234Y-78400466D01*
X164765546Y-78227396D01*
X164729000Y-78043667D01*
X164729000Y-77856333D01*
X164765546Y-77672604D01*
X164837234Y-77499534D01*
X164941312Y-77343770D01*
X165073770Y-77211312D01*
X165229534Y-77107234D01*
X165402604Y-77035546D01*
X165586333Y-76999000D01*
X165773667Y-76999000D01*
X165957396Y-77035546D01*
X165957396Y-77035546D01*
G37*
G36*
X145612396Y-77025546D02*
X145785466Y-77097234D01*
X145941230Y-77201312D01*
X146073688Y-77333770D01*
X146177766Y-77489534D01*
X146249454Y-77662604D01*
X146286000Y-77846333D01*
X146286000Y-78033667D01*
X146249454Y-78217396D01*
X146177766Y-78390466D01*
X146073688Y-78546230D01*
X145941230Y-78678688D01*
X145785466Y-78782766D01*
X145612396Y-78854454D01*
X145428667Y-78891000D01*
X145241333Y-78891000D01*
X145057604Y-78854454D01*
X144884534Y-78782766D01*
X144728770Y-78678688D01*
X144596312Y-78546230D01*
X144492234Y-78390466D01*
X144420546Y-78217396D01*
X144384000Y-78033667D01*
X144384000Y-77846333D01*
X144420546Y-77662604D01*
X144492234Y-77489534D01*
X144596312Y-77333770D01*
X144728770Y-77201312D01*
X144884534Y-77097234D01*
X145057604Y-77025546D01*
X145241333Y-76989000D01*
X145428667Y-76989000D01*
X145612396Y-77025546D01*
X145612396Y-77025546D01*
G37*
G36*
X154502396Y-77025546D02*
X154675466Y-77097234D01*
X154831230Y-77201312D01*
X154963688Y-77333770D01*
X155067766Y-77489534D01*
X155139454Y-77662604D01*
X155176000Y-77846333D01*
X155176000Y-78033667D01*
X155139454Y-78217396D01*
X155067766Y-78390466D01*
X154963688Y-78546230D01*
X154831230Y-78678688D01*
X154675466Y-78782766D01*
X154502396Y-78854454D01*
X154318667Y-78891000D01*
X154131333Y-78891000D01*
X153947604Y-78854454D01*
X153774534Y-78782766D01*
X153618770Y-78678688D01*
X153486312Y-78546230D01*
X153382234Y-78390466D01*
X153310546Y-78217396D01*
X153274000Y-78033667D01*
X153274000Y-77846333D01*
X153310546Y-77662604D01*
X153382234Y-77489534D01*
X153486312Y-77333770D01*
X153618770Y-77201312D01*
X153774534Y-77097234D01*
X153947604Y-77025546D01*
X154131333Y-76989000D01*
X154318667Y-76989000D01*
X154502396Y-77025546D01*
X154502396Y-77025546D01*
G37*
G36*
X148152396Y-77025546D02*
X148325466Y-77097234D01*
X148481230Y-77201312D01*
X148613688Y-77333770D01*
X148717766Y-77489534D01*
X148789454Y-77662604D01*
X148826000Y-77846333D01*
X148826000Y-78033667D01*
X148789454Y-78217396D01*
X148717766Y-78390466D01*
X148613688Y-78546230D01*
X148481230Y-78678688D01*
X148325466Y-78782766D01*
X148152396Y-78854454D01*
X147968667Y-78891000D01*
X147781333Y-78891000D01*
X147597604Y-78854454D01*
X147424534Y-78782766D01*
X147268770Y-78678688D01*
X147136312Y-78546230D01*
X147032234Y-78390466D01*
X146960546Y-78217396D01*
X146924000Y-78033667D01*
X146924000Y-77846333D01*
X146960546Y-77662604D01*
X147032234Y-77489534D01*
X147136312Y-77333770D01*
X147268770Y-77201312D01*
X147424534Y-77097234D01*
X147597604Y-77025546D01*
X147781333Y-76989000D01*
X147968667Y-76989000D01*
X148152396Y-77025546D01*
X148152396Y-77025546D01*
G37*
G36*
X157042396Y-77025546D02*
X157215466Y-77097234D01*
X157371230Y-77201312D01*
X157503688Y-77333770D01*
X157607766Y-77489534D01*
X157679454Y-77662604D01*
X157716000Y-77846333D01*
X157716000Y-78033667D01*
X157679454Y-78217396D01*
X157607766Y-78390466D01*
X157503688Y-78546230D01*
X157371230Y-78678688D01*
X157215466Y-78782766D01*
X157042396Y-78854454D01*
X156858667Y-78891000D01*
X156671333Y-78891000D01*
X156487604Y-78854454D01*
X156314534Y-78782766D01*
X156158770Y-78678688D01*
X156026312Y-78546230D01*
X155922234Y-78390466D01*
X155850546Y-78217396D01*
X155814000Y-78033667D01*
X155814000Y-77846333D01*
X155850546Y-77662604D01*
X155922234Y-77489534D01*
X156026312Y-77333770D01*
X156158770Y-77201312D01*
X156314534Y-77097234D01*
X156487604Y-77025546D01*
X156671333Y-76989000D01*
X156858667Y-76989000D01*
X157042396Y-77025546D01*
X157042396Y-77025546D01*
G37*
G36*
X139262396Y-77025546D02*
X139435466Y-77097234D01*
X139591230Y-77201312D01*
X139723688Y-77333770D01*
X139827766Y-77489534D01*
X139899454Y-77662604D01*
X139936000Y-77846333D01*
X139936000Y-78033667D01*
X139899454Y-78217396D01*
X139827766Y-78390466D01*
X139723688Y-78546230D01*
X139591230Y-78678688D01*
X139435466Y-78782766D01*
X139262396Y-78854454D01*
X139078667Y-78891000D01*
X138891333Y-78891000D01*
X138707604Y-78854454D01*
X138534534Y-78782766D01*
X138378770Y-78678688D01*
X138246312Y-78546230D01*
X138142234Y-78390466D01*
X138070546Y-78217396D01*
X138034000Y-78033667D01*
X138034000Y-77846333D01*
X138070546Y-77662604D01*
X138142234Y-77489534D01*
X138246312Y-77333770D01*
X138378770Y-77201312D01*
X138534534Y-77097234D01*
X138707604Y-77025546D01*
X138891333Y-76989000D01*
X139078667Y-76989000D01*
X139262396Y-77025546D01*
X139262396Y-77025546D01*
G37*
G36*
X136722396Y-77025546D02*
X136895466Y-77097234D01*
X137051230Y-77201312D01*
X137183688Y-77333770D01*
X137287766Y-77489534D01*
X137359454Y-77662604D01*
X137396000Y-77846333D01*
X137396000Y-78033667D01*
X137359454Y-78217396D01*
X137287766Y-78390466D01*
X137183688Y-78546230D01*
X137051230Y-78678688D01*
X136895466Y-78782766D01*
X136722396Y-78854454D01*
X136538667Y-78891000D01*
X136351333Y-78891000D01*
X136167604Y-78854454D01*
X135994534Y-78782766D01*
X135838770Y-78678688D01*
X135706312Y-78546230D01*
X135602234Y-78390466D01*
X135530546Y-78217396D01*
X135494000Y-78033667D01*
X135494000Y-77846333D01*
X135530546Y-77662604D01*
X135602234Y-77489534D01*
X135706312Y-77333770D01*
X135838770Y-77201312D01*
X135994534Y-77097234D01*
X136167604Y-77025546D01*
X136351333Y-76989000D01*
X136538667Y-76989000D01*
X136722396Y-77025546D01*
X136722396Y-77025546D01*
G37*
M02*
