M48
;DRILL file {KiCad 6.0.0-rc1-unknown-ef6f7e9~66~ubuntu16.04.1} date Tue Jan 29 21:41:35 2019
;FORMAT={-:-/ absolute / inch / decimal}
FMAT,2
INCH
T1C0.0157
T2C0.0315
T3C0.0394
%
G90
G05
M72
T1
X5.4429Y-3.3031
X5.4921Y-3.2283
X5.5709Y-3.2677
X5.6004Y-3.9075
X5.7382Y-3.9075
X5.7579Y-3.3031
X5.8071Y-3.2283
X5.8457Y-3.5932
X5.8465Y-3.3031
X5.876Y-3.568
X5.8957Y-3.7402
X5.9002Y-3.9613
X5.9646Y-3.4646
X5.9941Y-3.4941
X6.0231Y-3.4646
X6.0236Y-3.7402
X6.0236Y-3.8189
X6.0531Y-3.4995
X6.0827Y-3.7106
X6.0827Y-3.7697
X6.0832Y-3.474
X6.0925Y-3.3031
X6.109Y-3.4045
X6.1122Y-3.5039
X6.1417Y-3.376
X6.1614Y-3.2283
X6.2008Y-3.3031
X6.3878Y-3.2972
X6.4272Y-3.937
X6.4764Y-3.3031
X6.4862Y-3.9764
X6.4862Y-3.9764
X6.5059Y-3.2283
X6.5059Y-3.9469
X6.5059Y-3.9469
X6.5354Y-3.9272
X6.5354Y-3.9272
X6.5354Y-3.9272
X6.5354Y-3.9665
X6.5354Y-3.9665
X6.6924Y-3.4838
X6.6929Y-3.4252
X6.6929Y-3.4547
X6.7165Y-3.687
X6.7421Y-3.2874
X6.811Y-3.5954
X6.8406Y-3.2283
X6.8406Y-3.3031
X6.8406Y-3.6614
X6.8406Y-3.6909
X6.8696Y-3.4257
X6.8701Y-3.6614
X6.8701Y-3.6614
X6.8701Y-3.6909
X6.8799Y-3.4744
X6.8803Y-3.5335
X6.8809Y-3.5026
X6.9094Y-3.4252
X6.9386Y-3.4646
X6.9386Y-3.4646
X6.939Y-3.4941
X6.9587Y-3.4055
X7.1063Y-3.2776
X7.1262Y-3.4734
X7.1457Y-3.4941
X7.1555Y-3.4744
X7.1752Y-3.4941
X7.185Y-3.4744
X7.1949Y-3.2283
X7.2343Y-3.4941
X7.2638Y-4.0846
X7.2835Y-3.2972
X7.3327Y-4.0453
X7.3425Y-4.1437
X7.3917Y-4.0059
X7.4016Y-4.188
T2
X5.5833Y-3.474
X5.5833Y-3.574
X5.5833Y-3.674
X5.6833Y-3.524
X5.6833Y-3.624
X5.6833Y-3.724
X6.7262Y-3.1701
X6.7762Y-3.0701
X6.8262Y-3.1701
X6.8762Y-3.0701
X6.7618Y-4.1339
X6.8118Y-4.0339
X6.8618Y-4.1339
X6.9118Y-4.0339
X6.9618Y-4.1339
X7.0118Y-4.0339
X7.0618Y-4.1339
X7.1118Y-4.0339
X7.1618Y-4.1339
X7.2118Y-4.0339
X5.3219Y-3.1685
X5.3719Y-3.0685
X5.4219Y-3.1685
X5.4719Y-3.0685
X7.0805Y-3.1701
X7.1305Y-3.0701
X7.1805Y-3.1701
X7.2305Y-3.0701
X7.3713Y-3.3699
X7.3713Y-3.4699
X7.4713Y-3.4199
X7.4713Y-3.5199
X6.0219Y-3.1685
X6.0719Y-3.0685
X6.1219Y-3.1685
X6.1719Y-3.0685
X5.6719Y-3.1685
X5.7219Y-3.0685
X5.7719Y-3.1685
X5.8219Y-3.0685
X5.2978Y-3.474
X5.2978Y-3.574
X5.2978Y-3.674
X5.3978Y-3.524
X5.3978Y-3.624
X5.3978Y-3.724
X5.3232Y-4.1228
X5.3732Y-4.0228
X5.4232Y-4.1228
X5.4732Y-4.0228
X5.5232Y-4.1228
X5.5732Y-4.0228
X5.6232Y-4.1228
X5.6732Y-4.0228
X5.7232Y-4.1228
X5.7732Y-4.0228
X5.8232Y-4.1228
X5.8752Y-4.0228
X5.9232Y-4.1228
X5.9732Y-4.0228
X6.0232Y-4.1228
X6.0732Y-4.0228
X6.1232Y-4.1228
X6.1732Y-4.0228
X6.2232Y-4.1228
X6.2732Y-4.0228
X6.3728Y-3.1689
X6.4228Y-3.0689
X6.4728Y-3.1689
X6.5228Y-3.0689
T3
X6.2598Y-3.7598
X6.2598Y-3.8598
T0
M30
